<?xml version="1.0" encoding="UTF-8" standalone="no"?>
<!-- Created with Inkscape (http://www.inkscape.org/) -->

<svg
   xmlns:dc="http://purl.org/dc/elements/1.1/"
   xmlns:cc="http://creativecommons.org/ns#"
   xmlns:rdf="http://www.w3.org/1999/02/22-rdf-syntax-ns#"
   xmlns:svg="http://www.w3.org/2000/svg"
   xmlns="http://www.w3.org/2000/svg"
   xmlns:sodipodi="http://sodipodi.sourceforge.net/DTD/sodipodi-0.dtd"
   xmlns:inkscape="http://www.inkscape.org/namespaces/inkscape"
   width="40.000008mm"
   height="26.155716mm"
   viewBox="0 0 40.000008 26.155718"
   version="1.1"
   id="svg1049"
   inkscape:version="0.92.3 (2405546, 2018-03-11)"
   sodipodi:docname="sm_logo_40x26.svg"
   inkscape:export-filename="/mnt/helios_nfs/home/rounin/suburbanmarine/projects/can_usb_fw/sm_logo_40x26.png"
   inkscape:export-xdpi="1200"
   inkscape:export-ydpi="1200">
  <defs
     id="defs1043" />
  <sodipodi:namedview
     id="base"
     pagecolor="#ffffff"
     bordercolor="#666666"
     borderopacity="1.0"
     inkscape:pageopacity="0.0"
     inkscape:pageshadow="2"
     inkscape:zoom="3.959798"
     inkscape:cx="120.9876"
     inkscape:cy="32.627297"
     inkscape:document-units="mm"
     inkscape:current-layer="layer1"
     showgrid="false"
     inkscape:snap-bbox="true"
     inkscape:bbox-paths="true"
     inkscape:bbox-nodes="true"
     inkscape:snap-bbox-edge-midpoints="true"
     inkscape:snap-bbox-midpoints="true"
     inkscape:window-width="1920"
     inkscape:window-height="1012"
     inkscape:window-x="1440"
     inkscape:window-y="0"
     inkscape:window-maximized="1" />
  <metadata
     id="metadata1046">
    <rdf:RDF>
      <cc:Work
         rdf:about="">
        <dc:format>image/svg+xml</dc:format>
        <dc:type
           rdf:resource="http://purl.org/dc/dcmitype/StillImage" />
        <dc:title />
      </cc:Work>
    </rdf:RDF>
  </metadata>
  <g
     inkscape:label="Layer 1"
     inkscape:groupmode="layer"
     id="layer1"
     transform="translate(-0.30451577,-271.36618)">
    <g
       transform="matrix(0.02543381,0,0,-0.02543381,0.30451577,295.00307)"
       inkscape:label="ink_ext_XXXXXX"
       id="g37">
      <g
         transform="scale(0.1)"
         id="g39">
        <path
           inkscape:connector-curvature="0"
           id="path41"
           style="fill:#52423b;fill-opacity:1;fill-rule:nonzero;stroke:none"
           d="m 3305.85,1226.94 c -186.7,1516.7 -258.05,4765.48 92.49,6246.05 -28.45,-3.88 -74.82,28.52 -103.28,24.64 C 2969.92,6299.48 2859.73,4225.37 2897.29,2556.74 2551.83,3648 2064.98,4866.11 1609.8,5549.1 c -21.65,-3.97 -48.25,-37.44 -69.9,-41.41 538.91,-871.11 1151.85,-2861.78 1406.9,-4035.57 11.4,-156.23 24.38,-303.99 38.93,-441.17 71.55,-53.368 197.48,-19.78 268.55,55.45 12,7.02 22.45,15.75 30.46,26.48 -0.69,3.43 -1.52,7.11 -2.22,10.56 18.32,30.82 27.96,65.87 23.33,103.5" />
        <path
           inkscape:connector-curvature="0"
           id="path43"
           style="fill:#80cc2a;fill-opacity:1;fill-rule:nonzero;stroke:none"
           d="m 3874.69,7485.08 c -12.7,27.46 -24.38,55.3 -31.59,85.08 -2.82,11.66 9.79,18.21 17.33,9.44 20.58,-23.93 16.12,-62.55 20.79,-96.15 z m -345.6,-399.12 c 3.84,41.77 7.41,83.45 19.77,123.57 3.53,11.45 17.54,9.98 19.48,-1.65 6.9,-41.46 -35.25,-80.37 -39.25,-121.92 z m -83.15,712.54 c -11.32,2.02 -11.92,16.75 -1.21,20.42 38.2,13.06 80.97,-25.07 120.81,-23.3 -40.02,-1.97 -79.92,-4.22 -119.6,2.88 z m -488.88,-583.78 c 2.57,11.49 16.63,12.13 19.53,0.49 10.16,-40.8 11.44,-82.62 12.99,-124.55 -1.73,41.72 -41.67,83.08 -32.52,124.06 z m -258.86,349.36 c -14.44,-19.77 -30.24,-38.36 -46.09,-56.93 -11.07,-2.24 -22.09,-4.68 -33.09,-7.24 17,30.81 36.35,58.68 65.46,78.82 8.08,5.59 19.84,-6.27 13.72,-14.65 z M 1920,5431.17 c 15.87,-26.42 -4.02,-64.63 4.05,-94.12 -8.26,29.59 -16.69,59.05 -18.42,89.87 -0.49,8.8 9.92,11.66 14.37,4.25 z m 117.48,317.77 c 25.76,-7.22 46.14,-22.1 65.46,-39.6 -8.61,-0.79 -17.2,-1.68 -25.79,-2.72 -15.74,9.23 -31.44,18.49 -46.41,28.88 -6.35,4.41 -0.42,15.44 6.74,13.44 z m -562.3,-465.99 c -1.19,8.56 8.71,12.87 13.85,5.72 18.02,-25.07 29.96,-53.29 42.12,-81.52 -12.23,28.03 -51.72,45.27 -55.97,75.8 z m -42.97,440.52 c -27.39,-14.26 -57.03,-22.06 -86.7,-30.07 29.49,8.1 52.18,44.74 83.01,44.59 8.64,-0.04 11.5,-10.45 3.69,-14.52 z m -242.85,-319.15 -4.39,-2.66 c -4.12,24.52 -16.03,50.4 -6.37,71.91 3.54,7.89 14.21,6.28 14.77,-2.51 1.41,-22.46 -0.88,-44.61 -4.01,-66.74 z m 3771.67,2481.52 c -248.33,147.15 -547.11,198.48 -827.31,142.13 -169.86,-34.15 -332.1,-107.72 -473.25,-212.23 -33.33,-24.67 -75.91,-55.61 -117.61,-91.02 11.87,24 23.8,47.91 35.91,71.53 8.53,16.07 38.77,73.53 47.56,89.24 33.26,59.46 67.13,118.65 101.76,177.36 -17.03,-0.69 -34.07,-1.46 -51.08,-2.5 -48.8,-2.96 -96.82,-13.43 -145.48,-16.21 -10.07,-0.58 -12.8,16.29 -3.83,20.13 65.54,28.08 133.48,3.64 207.45,2.05 40.38,67.74 91.65,159.78 134.66,225.67 -12.77,-0.92 -25.54,-1.8 -38.22,-2.94 -38.64,-3.47 -76.58,-8.72 -115.42,-9.29 -11.84,-0.17 -15.56,19.42 -4.57,24.04 55.19,23.21 95.02,-11.67 158.21,-11.81 16.82,25.18 61.27,91.82 78.59,116.61 34.31,49.69 69.64,98.71 105.96,146.96 -18,-0.79 -35.99,-1.6 -53.98,-2.46 -67.6,-3.24 -134.04,-14.89 -201.37,-20.32 -10.53,-0.85 -18.31,15.25 -6.55,20.26 87.44,37.25 164.34,4.75 261.9,2.52 47.2,61.44 120.99,154.32 171.67,212.57 -6.2,0.14 -12.4,0.27 -18.59,0.4 -60.32,1.2 -119.24,-4.97 -179.28,-7.83 -12.89,-0.61 -15.67,20 -4.8,25.24 51.11,24.63 123.76,-16.24 178.87,-17.1 23.84,-0.38 0,0 23.8,-0.71 49.51,55.23 135.09,147.68 188.02,199.08 -14.69,0.22 -29.38,0.42 -44.08,0.4 -72.21,-0.11 -143.92,-8.97 -216.02,-10.45 -10.75,-0.22 -14.67,18.39 -4.23,22.23 66.65,24.55 150.24,-12.04 220.25,-11.78 31.48,0.12 12.68,1.34 44.08,-0.4 110.99,103.96 267.95,235.35 394.7,317.63 -413.22,34.61 -852.38,-29.32 -1185.23,-288.09 -229.11,-178.1 -395.02,-443.35 -459.41,-734.45 -39.03,-176.47 -40.58,-361.61 -6.56,-539.11 0.89,-4.64 1.84,-9.66 2.77,-14.56 -120.53,128.56 -266.78,230.92 -427.21,296.26 -265.92,108.3 -568.64,114.2 -838.23,16.32 -391.67,-142.19 -689.54,-486.15 -895.052,-863.18 136.322,63.31 328.402,125.09 472.952,162.55 16.32,28.14 6.69,11.2 24.52,38.36 39.65,60.43 57.88,153.37 114.8,197.21 8.92,6.87 21.38,-7.02 15.16,-16.19 -41.8,-61.54 -89.19,-118.61 -129.96,-181.02 -8.3,-12.7 -16.42,-25.53 -24.52,-38.36 70.37,16.83 191.52,38.79 262.98,50.51 12.86,21 -0.28,0.15 12.86,21 30.36,48.16 39.06,134.05 87.28,164.39 10.26,6.46 24.96,-7.56 17.21,-18.37 -36.08,-50.34 -74.15,-97.84 -107.18,-150.71 -3.39,-5.43 -6.78,-10.87 -10.17,-16.31 74.51,11.03 189.36,22.55 264.42,28.77 53.21,85.66 70.89,170.51 149.55,225.18 10.57,7.34 18.9,-8.46 12.29,-17.09 -42.23,-55.19 -88.84,-106.11 -129.49,-162.77 -10.81,-15.09 -21.59,-30.2 -32.35,-45.32 58.52,4.23 117.11,7.18 175.63,8.88 29.32,1.01 106.93,1.93 136.27,2.29 35.49,54.75 30.42,108.86 79.83,143.54 9.83,6.9 23.19,-7.35 16.38,-17.5 -22.33,-33.28 -47.85,-63.15 -72.36,-94.63 -8.04,-10.33 -15.93,-20.87 -23.85,-31.41 17.67,0.02 36.78,-0.4 56.53,-1.04 -211.42,-104.96 -393.84,-274.15 -516.74,-482.81 -204.8,-347.72 -237.33,-778.85 -183.49,-1185.32 -2.46,-4.69 -5.1,-9.29 -7.47,-14.02 -0.42,3.64 -0.85,7.36 -1.24,10.81 -14.94,131.74 -57.55,260.46 -125.6,374.34 -112.25,187.86 -292.84,333.86 -500.03,404.28 -301.044,102.3 -636.044,43.82 -930.02,-77.29 110.992,-27.62 255.043,-82.4 359.382,-128.83 22.543,8.58 9.09,3.32 32.102,10.62 51.176,16.25 104.019,61.38 158.187,59.91 8.485,-0.24 9.789,-14.13 1.895,-16.5 -52.981,-15.88 -107.332,-26.54 -160.082,-43.41 -10.738,-3.43 -21.422,-7.02 -32.102,-10.62 50.168,-23.42 133.375,-67.8 181.907,-94.68 17.222,6.07 -0.106,0.22 17.222,6.07 40.043,13.54 83.942,59.08 126.778,53.91 9.109,-1.1 11.703,-16.13 2.152,-18.73 -44.484,-12.1 -88.895,-21.62 -132.664,-36.61 -4.496,-1.54 -8.992,-3.1 -13.488,-4.64 50.058,-28.72 124.754,-76.17 172.988,-107.93 70.742,24.45 119.605,65.16 191.803,59.7 9.71,-0.73 7.64,-13.78 -0.24,-15.66 -50.387,-12.01 -101.508,-19.48 -151.594,-33.09 -13.332,-3.62 -26.653,-7.28 -39.969,-10.95 37.332,-25.12 74.117,-51.01 110.305,-77.6 18.199,-13.22 65.593,-49.25 83.508,-62.86 46.11,14.93 67.38,48.59 112.89,45.36 9.05,-0.64 10.73,-15.17 2.04,-17.83 -28.48,-8.72 -57.37,-13.96 -86.36,-20.61 -9.51,-2.18 -19.03,-4.56 -28.57,-6.92 46.18,-35.85 104.24,-87.99 148.9,-125.74 53.66,18.46 97.79,51.45 151.94,47.25 7.42,-0.58 9.2,-12.97 1.72,-14.93 -36.16,-9.48 -73.57,-13.45 -109.86,-22.84 -12.66,-3.27 -25.27,-6.73 -37.86,-10.25 38.44,-32.81 76.43,-66.12 114.05,-99.78 9.93,-8.89 44.89,-41.85 54.72,-51.06 14.14,-13.62 28.21,-27.5 42.26,-41.44 -38.39,14.89 -76.42,26.48 -106.29,35.86 -126.48,39.74 -261.44,52.96 -393.12,36.92 C 661.34,5695.59 454.672,5589.69 306.313,5428.81 90.7656,5195.08 8.44922,4865.13 0,4547.29 c 70.2383,90.27 178.703,199.76 263.445,276.32 1.297,24.09 0.649,9.66 3.297,33.65 5.895,53.37 -13.941,119.97 9.36,168.89 3.652,7.67 16.882,3.23 15.847,-4.95 -6.953,-54.87 -19.238,-108.88 -25.207,-163.94 -1.211,-11.2 -2.262,-22.43 -3.297,-33.65 41.743,36.37 116.035,94.45 160.289,127.92 1.422,18.21 -0.25,-0.01 1.422,18.21 3.86,42.09 -19.98,100.68 2.114,137.74 4.695,7.88 19.484,4.16 17.988,-5.62 -6.969,-45.57 -16.266,-90.03 -20.301,-136.12 -0.41,-4.73 -0.816,-9.47 -1.223,-14.21 46.547,34.12 120.196,83.17 168.778,114.39 6.328,74.58 -11.082,135.75 23.168,199.54 4.601,8.58 15.695,1.4 14.218,-6.57 -9.445,-50.93 -23.332,-100.69 -31.199,-151.99 -2.094,-13.66 -4.14,-27.32 -6.187,-40.98 38.097,23.95 76.676,47.08 115.648,69.39 19.461,11.28 71.613,39.99 91.32,50.86 5.04,48.2 -17.113,81.29 4.286,121.58 4.254,8.02 18.222,3.66 17.129,-5.35 -3.579,-29.58 -10.493,-58.11 -16.165,-87.31 -1.863,-9.58 -3.542,-19.24 -5.25,-28.92 51.485,27.68 122.68,59.63 175.297,85.15 4.871,56.54 -7.394,110.26 18.395,158.06 3.527,6.54 15.588,3.14 14.348,-4.49 -5.99,-36.9 -17.528,-72.7 -23.657,-109.69 -2.14,-12.9 -4.086,-25.83 -5.98,-38.76 31.737,15.21 63.737,29.77 95.697,44.43 -161.631,-137.28 -274.545,-330.99 -313.459,-539.49 -58.34,-312.55 47.32,-635.79 209.106,-909.49 11.511,113.79 45.193,264.18 76.273,374.08 -11.71,21.09 -4.58,8.52 -15.09,30.25 -23.38,48.34 -75.586,94.21 -81.851,148.03 -0.981,8.44 12.589,11.71 16.054,4.23 23.278,-50.17 41.577,-102.45 65.797,-152.26 4.92,-10.14 10,-20.2 15.09,-30.25 16.02,52.99 48.08,141.67 67.77,193.54 -8.47,16.18 -0.2,-0.13 -8.47,16.18 -19.1,37.71 -70.44,74.66 -71.43,117.8 -0.2,9.17 14.3,13.88 18.23,4.8 18.32,-42.3 34.08,-84.9 55.16,-126.09 2.16,-4.22 4.34,-8.45 6.51,-12.69 21.29,53.65 57.6,134.35 82.16,186.61 -34.28,66.54 -81.54,109.1 -86.44,181.34 -0.66,9.71 12.56,9.52 15.54,1.99 19.07,-48.16 33.76,-97.69 54.36,-145.33 5.49,-12.68 11.01,-25.34 16.54,-38 19.54,40.53 39.92,80.64 61.08,120.25 10.49,19.9 39.4,71.94 50.31,91.62 -21.35,43.51 -57.7,59.76 -60.99,105.26 -0.66,9.05 13.49,12.79 17.35,4.57 12.69,-26.95 22,-54.79 32.72,-82.54 3.51,-9.11 7.23,-18.19 10.92,-27.29 28.9,50.81 72.23,115.72 103.23,165.3 -25.93,50.48 -64.87,89.46 -68.44,143.66 -0.49,7.41 11.53,10.94 14.54,3.83 14.54,-34.44 23.8,-70.9 38.26,-105.49 5.05,-12.06 10.27,-24.05 15.55,-36.01 26.99,42.73 54.55,85.08 82.5,127.11 7.38,11.1 35.02,50.41 42.73,61.45 46.82,65.03 97.35,129.49 143.45,195.57 81.62,-24.33 166.27,-43.71 248.13,-66.16 12.93,-3.75 59.13,-16.97 71.85,-20.97 48.14,-15.14 96.19,-30.79 144.03,-47.09 -3.41,12.63 -6.87,25.23 -10.52,37.79 -10.47,36 -26.17,70.18 -36.49,106.11 -2.13,7.43 9.44,12.23 13.72,6.16 31.27,-44.41 25.45,-99.2 36.98,-154.77 55.27,-19.11 129.75,-42.4 184.15,-63.78 -2.84,9.4 -5.65,18.8 -8.64,28.09 -9.09,28.32 -19.33,55.83 -26.39,84.78 -2.15,8.82 11.2,14.8 16.38,7.34 26.01,-37.47 7.94,-72.95 18.65,-120.21 20.86,-8.46 76.04,-30.8 96.71,-39.69 41.33,-17.53 82.38,-35.94 123.05,-55.2 -3.65,13.32 -7.31,26.64 -11,39.96 -13.89,50 -33.57,97.77 -48.98,147.22 -2.41,7.74 7.75,16.18 13.34,8.21 41.56,-59.28 31.52,-122.09 46.64,-195.39 51.94,-25.24 130.88,-65.23 181.14,-93.6 -0.97,4.66 -1.93,9.32 -2.9,13.97 -9.47,45.29 -23.96,88.33 -36.28,132.75 -2.65,9.54 11.6,14.99 17.2,7.72 26.32,-34.19 9.59,-95.19 18.41,-136.53 3.81,-17.89 0,0 3.57,-17.91 47.9,-27.99 128.55,-76.86 174.31,-108.03 -2.36,11.02 -4.73,22.04 -7.26,33.02 -12.45,53.97 -31.04,106.14 -44.45,159.8 -1.99,8 10.62,13.98 15.15,6.8 28.93,-45.82 17.13,-114.3 29.3,-166.6 5.47,-23.51 3.12,-9.26 7.26,-33.02 93.21,-65.98 213.88,-161.85 294.32,-243.16 -46.04,314.59 -166.86,632.47 -408.57,839.03 -136.49,116.63 -307.57,191.78 -485.45,215.35 14.22,5.07 28.12,9.89 40.98,14 -8.15,5.49 -16.27,10.99 -24.45,16.3 -24.95,16.2 -50.29,31.04 -74.05,49.01 -7.25,5.48 -0.68,18.55 8.04,16.04 43.85,-12.58 52.28,-51.5 90.46,-81.35 21.5,6.63 78.38,24.21 100.02,30.39 43.11,12.55 86.55,24.24 130.23,35.02 -11.25,8.02 -22.5,16.03 -33.78,24.01 -42.37,29.96 -87.82,54.53 -131.03,83.1 -6.75,4.47 -4.22,17.44 5.15,14.8 69.69,-19.66 101.61,-74.67 159.66,-121.91 56.21,13.28 142.65,32.2 199.53,42 -3.7,2.99 -7.39,5.99 -11.08,8.98 -35.97,29.11 -74.41,53.29 -112.03,79.93 -8.08,5.72 -0.49,18.94 8.44,16.85 42.01,-9.85 67.61,-67.69 100.58,-94.14 14.26,-11.45 0,0 14.09,-11.62 54.81,8.59 148.19,21.72 203.35,26.49 -8.79,7.05 -17.6,14.09 -26.5,21 -43.76,33.94 -91.15,62.61 -135.46,95.71 -6.61,4.94 -0.61,17.54 7.44,14.84 51.38,-17.2 85.52,-77.73 128.02,-110.55 19.1,-14.76 8.27,-5.21 26.5,-21 113.94,7.81 268.04,9.81 381.77,-2.34 -234.55,214.65 -529.13,384.56 -846.99,391.79 -218.79,4.98 -438.52,-70.17 -608.42,-208.09 -6.16,-5 -12.02,-10.33 -18.04,-15.49 20.32,30.17 40.37,59.22 59.33,85.68 -4.34,32.62 -1.57,13.11 -4.16,45.96 -5.75,73.07 -47.73,157.16 -30.1,228.81 2.77,11.22 20.81,8.72 21.52,-2.51 4.77,-75.36 2.5,-150.95 8.58,-226.3 1.24,-15.34 2.69,-30.65 4.16,-45.96 44.36,59.64 124.97,156.86 173.27,213.26 -2.71,24.77 -0.31,-0.08 -2.71,24.77 -5.55,57.42 -50.65,129.73 -31.61,185.17 4.05,11.79 23.9,10.66 24.42,-2.84 2.44,-62.9 1.61,-124.91 7.93,-187.74 0.65,-6.45 1.31,-12.9 1.97,-19.36 51.07,57.87 133.11,142.83 187.51,197.35 -10.48,101.61 -48,179.05 -20.05,273.49 3.75,12.69 19.74,5.96 19.83,-5.1 0.6,-70.72 -4.78,-141.04 -2.07,-211.85 0.72,-18.85 1.5,-37.7 2.29,-56.54 42.79,42.03 86.4,83.1 130.72,123.16 22.1,20.2 81.69,72.3 104.2,92 -5.56,65.92 -42.15,104.49 -24.8,164.07 3.45,11.86 22.41,9.66 23.26,-2.71 2.79,-40.57 1.04,-80.62 1.06,-121.23 0,-13.33 0.26,-26.72 0.48,-40.13 59,50.53 142.16,111.92 203.14,159.85 -7.85,77.05 -36.93,145.85 -15.84,216.64 2.89,9.69 19.17,8.28 19.48,-2.26 1.53,-51.02 -4.31,-102.02 -2.95,-153.19 0.48,-17.85 1.21,-35.68 2.01,-53.52 52.88,41.17 106.29,81.59 160,121.39 14.19,10.52 66.26,47 80.82,57.28 92.65,63.38 190,123.94 281.61,189.66 83.58,-66.63 172.01,-129.31 256.07,-194.3 13.97,-11.13 63.97,-50.68 77.56,-62.03 51.45,-42.95 102.56,-86.5 153.11,-130.77 1.78,17.76 3.48,35.52 4.93,53.31 4.15,51.01 1.11,102.27 5.42,153.11 0.89,10.52 17.21,10.95 19.57,1.1 17.19,-71.94 -15.6,-138.88 -27.64,-215.34 58.26,-51.5 137.93,-117.77 194.07,-171.76 0.96,13.38 1.94,26.73 2.67,40.04 2.24,40.55 2.68,80.63 7.68,120.97 1.53,12.3 20.58,13.35 23.37,1.31 14.07,-60.52 -24.57,-96.84 -33.72,-162.32 21.4,-21.02 78.05,-76.6 99.01,-98.08 42.06,-42.65 83.35,-86.27 123.78,-130.8 1.81,18.77 3.62,37.53 5.37,56.31 6.57,70.53 5.05,141.06 9.5,211.63 0.7,11.03 17.03,16.8 20.08,3.9 22.75,-95.95 -18.94,-171.02 -34.95,-271.84 51.33,-57.68 128.59,-147.42 176.42,-208.26 1.01,6.41 2.02,12.82 3.03,19.22 9.73,62.35 12.3,124.31 18.17,186.95 1.25,13.45 21.13,13.39 24.53,1.38 15.99,-56.49 -32.99,-125.98 -41.67,-182.97 -3.75,-24.67 0,0 -4.06,-24.58 45.14,-59.2 120.31,-161.09 161.34,-223.29 2.31,15.2 4.59,30.4 6.66,45.64 10.19,74.87 12.05,150.47 20.93,225.42 1.32,11.16 19.47,12.58 21.61,1.21 13.7,-72.59 -32.8,-154.02 -42.54,-226.63 -4.37,-32.64 -0.54,-13.33 -6.66,-45.64 82.42,-129.87 184.22,-311.3 243.91,-454.42 91.63,423.4 93.83,887.74 -103.27,1269.67 -131.48,254.78 -348.91,459.41 -604.3,570.35 45.52,-5.7 91.05,-11.26 136.51,-17.78 -7.52,16.03 -15.09,32.03 -22.89,47.9 -22.37,45.52 -50.96,87.24 -73.12,132.71 -4.58,9.4 9.03,18.85 16.02,11.82 51.08,-51.36 57.28,-126.32 85.88,-197.78 75.5,-11.2 176.61,-22.98 251.56,-37.45 -5.98,11.86 -11.92,23.72 -18.05,35.39 -18.69,35.59 -38.66,69.8 -54.9,106.75 -4.95,11.26 10.65,22.76 19.14,14.12 42.62,-43.44 28.33,-95.71 53.81,-156.26 28.8,-5.9 104.99,-21.44 133.65,-27.97 57.27,-12.71 114.39,-26.67 171.23,-41.88 -7.99,16.9 -15.98,33.8 -24.03,50.68 -30.23,63.41 -67.32,122.29 -99.36,184.55 -5.01,9.74 5.89,23.71 15.03,14.48 67.96,-68.61 70.76,-155.41 108.36,-249.71 72.76,-20.29 183.75,-53.29 255.14,-78.2 -2.4,5.99 -4.79,11.98 -7.2,17.96 -23.39,58.23 -52.66,112.14 -79.49,168.47 -5.76,12.1 11.11,23.11 20.08,14.83 42.21,-38.95 35.99,-125.08 57.57,-178.18 9.34,-22.98 0,0 9.04,-23.08 68.28,-25.02 183.66,-69.47 249.98,-99.32 -5.75,14.16 -11.54,28.31 -17.51,42.37 -29.37,69.08 -66.17,134.16 -96.69,202.58 -4.54,10.2 10.11,21.5 17.7,13.06 48.44,-53.86 50.38,-148.72 78.99,-215.64 12.86,-30.09 6.3,-11.6 17.51,-42.37 135.74,-64.12 314.05,-161.13 437.24,-249.13 -137.28,409.63 -371.08,804.17 -731.88,1017.96" />
        <path
           inkscape:connector-curvature="0"
           id="path45"
           style="fill:#a47443;fill-opacity:1;fill-rule:nonzero;stroke:none"
           d="m 15478.7,614.391 c -4.3,10.441 -8.8,20.968 -13.4,31.558 l -1.6,1.043 c -151.2,344.508 -332.3,649.988 -540.9,917.678 l -1643.3,-23.67 -158.4,-2.27 c 403.7,-86.35 771.2,-202.17 1090.5,-323.37 l 55.7,0.81 c -4.5,-3.43 -9.2,-6.4 -13.6,-9.94 l -3.8,-5.19 c 742.5,-286.188 1211.3,-595.649 1239.7,-614.649 l 2.8,-1.828 c -4.3,10.257 -9.3,19.648 -13.7,29.828" />
        <path
           inkscape:connector-curvature="0"
           id="path47"
           style="fill:#a47443;fill-opacity:1;fill-rule:nonzero;stroke:none"
           d="m 8324.24,3009.34 c -45.12,-0.67 -80.55,-33.76 -79.83,-75.56 0.7,-40.96 37.72,-73.88 82.38,-73.23 45.12,0.65 81,34.6 80.3,75.57 -0.7,40.96 -37.72,73.85 -82.85,73.22" />
        <path
           inkscape:connector-curvature="0"
           id="path49"
           style="fill:#a47443;fill-opacity:1;fill-rule:nonzero;stroke:none"
           d="m 13386.6,1944.37 c 0.7,-42.01 36.6,-74.12 81.9,-73.45 45.2,0.64 80.8,34.6 80.1,75.78 -0.7,40.36 -37.5,73.26 -82.6,72.61 -44.4,-0.63 -80.1,-34.59 -79.4,-74.94" />
        <path
           inkscape:connector-curvature="0"
           id="path51"
           style="fill:#a47443;fill-opacity:1;fill-rule:nonzero;stroke:none"
           d="m 9194.34,2190.07 c 44.9,0.66 80.77,34.82 80.06,75.78 -0.69,40.75 -37.72,73.87 -82.6,73.22 -44.9,-0.63 -80.77,-34.82 -80.07,-75.55 0.69,-40.97 37.71,-74.09 82.61,-73.45" />
        <path
           inkscape:connector-curvature="0"
           id="path53"
           style="fill:#a47443;fill-opacity:1;fill-rule:nonzero;stroke:none"
           d="m 6181.01,1004.83 c 44.66,0.66 80.54,33.98 79.84,74.74 -0.69,40.97 -37.72,74.09 -82.38,73.45 -45.13,-0.66 -81,-34.82 -80.29,-75.78 0.69,-40.77 37.7,-73.05 82.83,-72.41" />
        <path
           inkscape:connector-curvature="0"
           id="path55"
           style="fill:#a47443;fill-opacity:1;fill-rule:nonzero;stroke:none"
           d="m 7604.72,1690.76 c 45.12,0.65 80.53,35.02 79.83,75.77 -0.7,40.75 -37.25,73.86 -82.38,73.23 -45.13,-0.66 -80.58,-34.82 -79.88,-75.55 0.69,-40.77 37.3,-74.1 82.43,-73.45" />
        <path
           inkscape:connector-curvature="0"
           id="path57"
           style="fill:#a47443;fill-opacity:1;fill-rule:nonzero;stroke:none"
           d="m 5322.25,760.02 c -45.07,-0.661 -80.53,-34.821 -79.83,-75.59 0.7,-40.961 37.29,-73.239 82.37,-72.61 45.13,0.672 80.6,33.993 79.89,74.95 -0.69,40.773 -37.3,73.882 -82.43,73.25" />
        <path
           inkscape:connector-curvature="0"
           id="path59"
           style="fill:#a47443;fill-opacity:1;fill-rule:nonzero;stroke:none"
           d="m 8788.19,1497.5 c 0.7,-40.79 37.26,-73.92 82.38,-73.27 45.13,0.66 80.53,34.82 79.84,75.61 -0.71,40.73 -37.25,73.21 -82.37,72.58 -45.13,-0.66 -80.55,-34.19 -79.85,-74.92" />
        <path
           inkscape:connector-curvature="0"
           id="path61"
           style="fill:#a47443;fill-opacity:1;fill-rule:nonzero;stroke:none"
           d="m 7236.06,2161.88 c 45.13,0.65 80.53,34.81 79.83,75.77 -0.69,40.75 -37.23,73.06 -82.36,72.41 -44.66,-0.65 -80.54,-34 -79.85,-74.75 0.7,-40.95 37.73,-74.06 82.38,-73.43" />
        <path
           inkscape:connector-curvature="0"
           id="path63"
           style="fill:#a47443;fill-opacity:1;fill-rule:nonzero;stroke:none"
           d="m 9945.77,2751.73 c -0.69,40.53 -37.76,73.44 -82.19,72.8 -44.89,-0.65 -80.53,-34.59 -79.84,-75.12 0.7,-40.96 37.49,-73.88 82.38,-73.23 45.37,0.65 80.36,34.17 79.65,75.55" />
        <path
           inkscape:connector-curvature="0"
           id="path65"
           style="fill:#a47443;fill-opacity:1;fill-rule:nonzero;stroke:none"
           d="m 8180.82,1562.53 c -45.13,-0.67 -80.59,-34.19 -79.89,-74.92 0.69,-40.8 37.3,-73.91 82.43,-73.28 45.08,0.66 80.53,34.82 79.83,75.61 -0.7,40.74 -37.29,73.22 -82.37,72.59" />
        <path
           inkscape:connector-curvature="0"
           id="path67"
           style="fill:#a47443;fill-opacity:1;fill-rule:nonzero;stroke:none"
           d="m 5637.52,1758.16 c 45.08,0.65 80.53,35.04 79.84,75.77 -0.7,40.76 -37.3,73.28 -82.37,72.64 -44.67,-0.65 -80.59,-34.21 -79.9,-74.97 0.7,-40.74 37.77,-74.09 82.43,-73.44" />
        <path
           inkscape:connector-curvature="0"
           id="path69"
           style="fill:#a47443;fill-opacity:1;fill-rule:nonzero;stroke:none"
           d="m 7461.61,2620.2 c -0.7,41.38 -37.71,73.91 -82.38,73.26 -45.13,-0.65 -80.54,-34.22 -79.83,-75.6 0.7,-40.96 37.25,-73.88 82.38,-73.22 44.66,0.64 80.53,34.59 79.83,75.56" />
        <path
           inkscape:connector-curvature="0"
           id="path71"
           style="fill:#a47443;fill-opacity:1;fill-rule:nonzero;stroke:none"
           d="m 7896.93,1103.96 c 0.7,-40.74 37.25,-73.89 82.38,-73.23 44.66,0.64 80.53,34.82 79.84,75.56 -0.71,40.98 -37.72,73.27 -82.37,72.61 -45.13,-0.64 -80.55,-33.97 -79.85,-74.94" />
        <path
           inkscape:connector-curvature="0"
           id="path73"
           style="fill:#a47443;fill-opacity:1;fill-rule:nonzero;stroke:none"
           d="m 6136.59,2241.78 -5.35,312.57 c -278.57,-80.54 -550.06,-164.25 -812.18,-249.47 l 1.28,-74.86 816.25,11.76" />
        <path
           inkscape:connector-curvature="0"
           id="path75"
           style="fill:#a47443;fill-opacity:1;fill-rule:nonzero;stroke:none"
           d="m 10594.7,2761.08 c -0.7,40.53 -37.5,73.43 -81.9,72.8 -44.9,-0.64 -80.8,-34.59 -80.1,-75.14 0.7,-40.95 37.7,-73.86 82.6,-73.21 45.4,0.64 80.1,34.17 79.4,75.55" />
        <path
           inkscape:connector-curvature="0"
           id="path77"
           style="fill:#a47443;fill-opacity:1;fill-rule:nonzero;stroke:none"
           d="m 7818.69,2318.49 c -45.13,-0.65 -80.55,-34 -79.86,-74.75 0.71,-40.95 37.26,-74.08 82.39,-73.43 45.12,0.64 80.53,34.82 79.83,75.77 -0.7,40.74 -37.24,73.06 -82.36,72.41" />
        <path
           inkscape:connector-curvature="0"
           id="path79"
           style="fill:#a47443;fill-opacity:1;fill-rule:nonzero;stroke:none"
           d="m 11842.7,2302.84 c 0.7,-42.27 36.6,-74.12 81.9,-73.45 44.9,0.63 80.8,34.39 80.1,75.78 -0.7,40.74 -37.7,73.85 -82.6,73.22 -44.5,-0.65 -80.1,-34.82 -79.4,-75.55" />
        <path
           inkscape:connector-curvature="0"
           id="path81"
           style="fill:#a47443;fill-opacity:1;fill-rule:nonzero;stroke:none"
           d="m 12843.8,2697.68 c 0.7,-40.96 37.5,-73.86 82.6,-73.21 45.4,0.65 80.1,34.2 79.4,75.55 -0.7,41.4 -37.5,73.91 -81.9,73.28 -45.2,-0.67 -80.8,-34.22 -80.1,-75.62" />
        <path
           inkscape:connector-curvature="0"
           id="path83"
           style="fill:#a47443;fill-opacity:1;fill-rule:nonzero;stroke:none"
           d="m 5019.02,659.879 -1230.86,-17.707 -232.97,-3.34 c 547.17,-83.383 1030.25,-135 1466.93,-160.262 l -0.62,36.282 -2.48,145.027" />
        <path
           inkscape:connector-curvature="0"
           id="path85"
           style="fill:#a47443;fill-opacity:1;fill-rule:nonzero;stroke:none"
           d="m 3499.07,1495.11 c -45.08,-0.64 -80.54,-34.16 -79.84,-74.92 0.71,-41.6 36.83,-73.91 82.38,-73.26 44.66,0.65 80.58,34.8 79.88,75.59 -0.7,40.77 -37.76,73.24 -82.42,72.59" />
        <path
           inkscape:connector-curvature="0"
           id="path87"
           style="fill:#a47443;fill-opacity:1;fill-rule:nonzero;stroke:none"
           d="m 12035.4,3030.57 -2.4,136.02 c -326.1,57.02 -663.5,91.22 -1008.1,106.46 -17.6,-8.97 -36.9,-15.45 -58.5,-15.76 -26.4,-0.38 -49.6,8.36 -70,20.62 -36.2,1.1 -72.5,1.71 -108.9,2.4 l 4.6,-267.64 1243.3,17.9" />
        <path
           inkscape:connector-curvature="0"
           id="path89"
           style="fill:#a47443;fill-opacity:1;fill-rule:nonzero;stroke:none"
           d="m 10529.1,1881.91 c -44.9,-0.67 -80.8,-34.82 -80.1,-75.59 0.7,-41.16 37.7,-74.06 82.6,-73.41 44.9,0.63 80.6,34.58 79.9,75.77 -0.7,40.74 -37.5,73.86 -82.4,73.23" />
        <path
           inkscape:connector-curvature="0"
           id="path91"
           style="fill:#a47443;fill-opacity:1;fill-rule:nonzero;stroke:none"
           d="m 4970.16,2129.25 c 45.13,0.65 80.58,34.82 79.88,75.79 -0.06,3.6 -1.81,6.65 -2.42,10.1 -49.41,-16.64 -97.8,-33.32 -146.44,-50 14.52,-21.39 39.35,-36.32 68.98,-35.89" />
        <path
           inkscape:connector-curvature="0"
           id="path93"
           style="fill:#a47443;fill-opacity:1;fill-rule:nonzero;stroke:none"
           d="m 10926.8,2839.85 c -45.1,-0.66 -80.8,-34.62 -80.1,-75.15 0.7,-40.96 37.5,-73.87 82.7,-73.22 45.3,0.67 80.1,34.16 79.3,75.56 -0.6,40.53 -37.4,73.44 -81.9,72.81" />
        <path
           inkscape:connector-curvature="0"
           id="path95"
           style="fill:#a47443;fill-opacity:1;fill-rule:nonzero;stroke:none"
           d="m 9244.57,1958.53 c -44.9,-0.64 -80.55,-34.21 -79.85,-74.95 0.69,-40.76 37.49,-74.08 82.38,-73.45 44.89,0.65 80.76,35.02 80.07,75.79 -0.7,40.73 -37.72,73.26 -82.6,72.61" />
        <path
           inkscape:connector-curvature="0"
           id="path97"
           style="fill:#a47443;fill-opacity:1;fill-rule:nonzero;stroke:none"
           d="m 9363.09,3024.28 c -45.36,-0.64 -80.78,-33.74 -80.07,-75.56 0.71,-40.96 37.72,-73.86 82.62,-73.21 43.95,0.63 79.65,34.59 78.95,75.55 -0.71,40.95 -37.54,73.85 -81.5,73.22" />
        <path
           inkscape:connector-curvature="0"
           id="path99"
           style="fill:#a47443;fill-opacity:1;fill-rule:nonzero;stroke:none"
           d="m 4565.15,1129.8 c -45.07,-0.66 -80.99,-34.84 -80.29,-75.8 0.69,-40.75 37.75,-73.031 82.83,-72.398 44.66,0.648 80.59,33.988 79.9,74.748 -0.71,40.97 -37.77,74.08 -82.44,73.45" />
        <path
           inkscape:connector-curvature="0"
           id="path101"
           style="fill:#a47443;fill-opacity:1;fill-rule:nonzero;stroke:none"
           d="m 10532.4,1690.44 c -70.5,-1.01 -128.5,50.63 -129.6,115.22 -1,57.03 43.7,103.02 102.4,114.23 l -12.5,726.95 c -59,9.55 -105.3,54.39 -106.3,111.24 -1.1,64.37 55.3,117.02 125.7,118.05 70.4,1.01 128,-50.01 129.1,-114.37 1,-56.92 -43.5,-103.11 -102.2,-114.29 l 12.4,-726.88 c 59.2,-9.42 105.6,-54.15 106.6,-111.25 1.1,-64.58 -55.2,-117.89 -125.6,-118.9 z M 9366.36,2832.87 c -62.32,-0.9 -112.58,40.41 -124.61,94.36 l -792.84,-11.42 c -10.15,-54.27 -58.86,-96.99 -121.39,-97.89 -70.19,-1.02 -128.03,50.81 -129.12,115.2 -1.11,64.79 54.93,117.44 125.12,118.45 62.39,0.91 112.41,-39.64 124.58,-93.56 l 793,11.43 c 10.36,54.23 59.09,96.19 121.27,97.1 69.95,1.01 127.58,-50.02 128.69,-114.81 1.1,-64.39 -54.74,-117.85 -124.7,-118.86 z M 9247.83,1767.73 c -62.18,-0.9 -112.32,40.05 -124.53,93.93 l -1002.53,-14.43 -6.51,380.6 -171.04,-2.47 c -10.4,-54.2 -59.3,-96.63 -121.27,-97.52 -70.19,-1.01 -128.49,50.64 -129.59,115.24 -1.1,63.94 55.41,116.82 125.6,117.83 61.98,0.89 112.31,-39.76 124.54,-93.12 l 217.51,3.12 6.52,-380.38 956.07,13.76 c 10.44,53.75 59.11,95.77 121.24,96.66 70.42,1.03 128.52,-50.21 129.62,-114.37 1.1,-64.59 -55.21,-117.85 -125.63,-118.85 z M 8184.09,1371.71 c -62.04,-0.91 -112.42,40.18 -124.6,94.14 l -1299.4,-18.7 5.8,-338.99 527.75,7.6 7.24,-423.018 -1854.1,-26.679 c -10.49,-53.762 -59.34,-95.782 -121.26,-96.661 -70.14,-1.011 -128.48,50.207 -129.58,114.368 -1.1,64.359 55.45,117.652 125.59,118.66 62.03,0.89 112.4,-40.16 124.59,-93.95 l 1807.56,26.04 -5.79,338.16 -527.29,-7.6 -7.25,423.87 1345.48,19.37 c 10.48,53.74 59.35,95.72 121.26,96.61 70.19,1.01 128.48,-50.16 129.58,-114.32 1.11,-64.6 -55.39,-117.89 -125.58,-118.9 z m -3494.2,-335.03 c -10.03,-54.11 -59.17,-96.598 -121.48,-97.5 -70.6,-1.02 -128.47,50.211 -129.56,114.16 -1.11,64.57 54.97,117.86 125.58,118.87 61.64,0.89 111.75,-39.67 124.35,-93.11 l 442.87,6.37 -6.51,380.62 452.99,6.52 6.53,-381.44 471.77,6.78 c 10.33,54.21 58.93,96.6 121.32,97.49 70.18,1.01 128.01,-50.63 129.12,-115.2 1.09,-63.96 -54.95,-116.81 -125.13,-117.818 -62.4,-0.91 -112.41,39.738 -124.58,93.108 l -518.25,-7.46 -6.53,381.41 -360.5,-5.2 6.51,-380.56 z m 944.37,912.3 c 62.29,0.89 112.26,-39.7 124.49,-93.12 l 647.74,9.31 -6.52,380.4 711.58,10.24 c 10.41,53.7 59.28,95.78 121.25,96.67 70.66,1.01 128.48,-50.21 129.57,-114.15 1.11,-64.59 -54.92,-117.9 -125.58,-118.91 -61.97,-0.9 -112.27,40.1 -124.52,93.98 l -665.08,-9.57 6.51,-380.6 -694.19,-10.01 c -10.32,-54.18 -58.92,-96.59 -121.26,-97.48 -70.19,-1.01 -128.53,50.6 -129.63,115.19 -1.11,64.16 55.45,117.04 125.64,118.05 z m 1944.02,-71.24 -13.11,765.31 787.04,11.33 6.51,-380.6 711.06,10.25 c 10.29,54.12 59.05,96.55 121.29,97.46 70.41,1.01 128.48,-50.6 129.58,-114.98 1.11,-64.59 -55.16,-117.88 -125.58,-118.89 -62.18,-0.91 -112.31,40.1 -124.53,93.97 l -757.1,-10.91 -6.51,380.37 -694.55,-10.01 12.37,-722.62 c 58.95,-9.52 105.3,-54.21 106.28,-111.21 1.1,-64.6 -55.4,-117.91 -125.59,-118.92 -70.18,-1.01 -128.53,50.65 -129.63,115.24 -0.98,57.02 43.88,103 102.47,114.21 z M 3502.34,1304.3 c -70.19,-1.01 -128.48,50.63 -129.59,115.22 -1.1,64.16 55.41,117 125.59,118.01 70.19,1.01 128.53,-50.17 129.63,-114.33 1.1,-64.59 -55.44,-117.89 -125.63,-118.9 z m 11087.56,636.06 -999.4,-14.37 c -10.3,-54.21 -59.1,-96.59 -121.2,-97.48 -70.2,-1.03 -127.9,50.6 -129,115.19 -1.1,64.16 54.8,117.02 125,118.03 62.1,0.9 112.2,-39.71 124.5,-93.13 l 955.2,13.76 c -125.4,120.3 -257.5,230.9 -395.8,332.36 l -2102.6,-30.27 c -10.4,-54.21 -59.1,-96.63 -121.3,-97.53 -70.4,-1.01 -128,50.66 -129.1,115.24 -1.1,64.37 54.7,117.63 125.1,118.64 62.3,0.89 112.5,-40.13 124.6,-93.93 l 2044.6,29.44 c -174.5,123.32 -357.4,233.97 -549.5,330.1 l -493.3,-7.1 c -10.3,-54.01 -58.6,-96.37 -120.6,-97.27 -70.4,-1 -128.5,50.65 -129.6,114.98 -1.1,64.79 55.2,117.89 125.6,118.9 62,0.89 111.8,-39.96 123.9,-93.94 l 405.7,5.84 c -424.2,201.11 -885.7,341.82 -1373.3,430.55 l 2.9,-169.78 -1335.7,-19.22 -5.3,311.95 c -368,5.22 -742.87,-10.18 -1120.48,-42.44 l -3.17,-0.63 -1.48,0.26 C 8962.41,3182.45 8301.24,3076.18 7654.92,2938.45 l 0.23,-13.58 -67.97,-0.99 c -409.43,-88.76 -812.44,-189.47 -1203.11,-297.84 l 873.12,12.58 c 10.32,54.3 58.93,96.57 121.31,97.46 70.19,1.01 128.48,-50.41 129.59,-115.22 1.1,-64.33 -55.4,-117.64 -125.59,-118.65 -62.35,-0.9 -112.36,40.07 -124.56,93.73 l -1033.17,-14.87 c -15.92,-4.55 -31.84,-9.08 -47.72,-13.64 l 6.28,-367.41 -908.74,-13.07 -1.76,102.97 c -61.36,-20.06 -121.76,-40.25 -182.05,-60.45 2.04,-7.92 5.59,-15.32 5.73,-23.77 1.11,-64.59 -55.43,-117.9 -125.62,-118.91 -49.48,-0.71 -91.94,25.53 -113.73,63.26 -219.96,-75.84 -431.37,-151.77 -633.31,-226.79 l 1.53,-89.47 334.51,4.8 7.23,-423.02 -934.68,-13.46 -0.73,42.47 888.21,12.79 -5.79,337.93 -334.04,-4.81 -1.97,115.75 C 3009.74,1469.98 2263.29,1061.31 2065.1,955.23 c -27.92,-17.468 -40.64,-25.289 -46.11,-28.539 l 4.3,-0.449 -6.6,-4.453 C 2519.02,816.223 2976.97,730.941 3398,663.691 l -0.26,15.289 125.73,1.821 1540.89,22.191 3.27,-191.101 0.62,-36.27 c 1634.47,-88.34 2615.09,198.442 3860.36,592.849 l -0.5,29.22 -6.03,-0.09 -820.77,-11.81 c -10.34,-54.12 -59.24,-96.599 -121.27,-97.489 -70.65,-1.012 -128.49,50.629 -129.59,114.989 -1.1,64.17 54.95,117.03 125.6,118.04 61.91,0.9 112.15,-39.69 124.46,-93.12 l 873.41,12.58 0.45,-26.61 0.53,-31.06 c 248.92,78.93 508.58,161.81 786.64,246.89 l -0.53,31.23 -2.21,129.08 -766.18,-11.02 c -10.33,-54.31 -59.27,-96.8 -121.32,-97.71 -70.19,-1.01 -128.48,50.66 -129.59,115.25 -1.1,64.16 55.42,116.98 125.6,117.99 61.91,0.89 112.2,-39.65 124.51,-93.08 l 812.74,11.7 2.7,-158.21 0.53,-31.24 c 137.66,41.92 278.81,84.21 426.31,126.79 35.6,10.3 71,18.43 106.5,27.91 l -124.9,-1.8 -15.5,-0.22 -6.5,380.38 -755.42,-10.88 -7.24,423.04 418.59,6.03 -5.86,342.2 c -59.18,9.46 -105.54,54.38 -106.51,111.28 -1.1,64.38 55.23,117.03 125.6,118.05 70.42,1.01 128.06,-50.01 129.15,-114.38 0.98,-56.84 -43.36,-102.98 -101.99,-114.23 l 6.59,-384.68 -418.56,-6.03 5.78,-337.97 755.37,10.87 6.5,-380.55 137.4,1.97 134.3,1.94 c 729.7,168.3 1434.6,170.61 2073.7,86.04 l -0.7,37.17 -4.2,244.58 -1666.3,-23.98 -13.1,765.27 c -59.1,9.55 -105.4,54.4 -106.3,111.24 -1.1,64.39 55.2,117.03 125.6,118.04 70.2,1.01 127.8,-49.99 128.9,-114.38 1,-56.87 -43.4,-103.08 -102,-114.27 l 12.4,-722.61 1666.4,23.99 5,-293.82 0.6,-37.16 c 96,-13.4 190.6,-28.5 283.4,-45.51 l 180.5,2.6 1786.8,25.72 c -94.6,118.01 -193.5,229.99 -298.2,333.72" />
        <path
           inkscape:connector-curvature="0"
           id="path103"
           style="fill:#a47443;fill-opacity:1;fill-rule:nonzero;stroke:none"
           d="m 2018.99,926.691 -0.71,0.071 c 0,0 -7.07,-4.711 0.71,-0.071" />
        <path
           inkscape:connector-curvature="0"
           id="path105"
           style="fill:#49a4e0;fill-opacity:1;fill-rule:nonzero;stroke:none"
           d="m 15489.6,586.391 c -28.4,19 -497.2,328.461 -1239.7,614.649 l 3.8,5.19 c 4.4,3.54 9.1,6.51 13.6,9.94 l -55.7,-0.81 c -319.3,121.2 -686.8,237.02 -1090.5,323.37 l 158.4,2.27 c -58.7,13.87 -117.9,27.32 -178.2,39.92 l -180.5,-2.6 c -92.8,17.01 -187.4,32.11 -283.4,45.51 l -0.6,37.16 c -15.4,2.11 -30.9,3.92 -46.4,5.94 l 0.7,-37.17 c -639.1,84.57 -1344,82.26 -2073.7,-86.04 l -134.3,-1.94 c -45.2,-11.8 -90.4,-22.47 -135.8,-35.6 -10.8,-3.1 -20.9,-6.17 -31.6,-9.28 l 124.9,1.8 c -35.5,-9.48 -70.9,-17.61 -106.5,-27.91 -147.5,-42.58 -288.65,-84.87 -426.31,-126.79 l -0.53,31.24 c -15.26,-4.64 -31.1,-9.36 -46.25,-14 l 0.53,-31.23 c -278.06,-85.08 -537.72,-167.96 -786.64,-246.89 l -0.53,31.06 c -17.45,-5.53 -34.94,-11.08 -52.29,-16.58 l 6.03,0.09 0.5,-29.22 C 7683.34,674.063 6702.72,387.281 5068.25,475.621 l -0.62,36.27 c -15.11,0.839 -30.9,2.05 -46.13,2.961 l 0.62,-36.282 c -436.68,25.262 -919.76,76.879 -1466.93,160.262 l 232.97,3.34 c -87.06,12.289 -174.23,24.648 -264.69,38.629 l -125.73,-1.821 0.26,-15.289 c -421.03,67.25 -878.98,152.532 -1381.31,258.098 -105.7,-47.75 -169.5,-91.289 -183.46,-129.187 0,0 2316.14,-1274.942 8098,-329.629 C 15432.3,1362.36 15613.6,122.551 15618.2,0 c -0.4,47.3398 -9.4,282.52 -128.6,586.391" />
        <path
           inkscape:connector-curvature="0"
           id="path107"
           style="fill:#49a4e0;fill-opacity:1;fill-rule:nonzero;stroke:none"
           d="m 5578.66,5267.47 c 35.89,-27.48 81.13,-50.12 135.79,-67.89 54.63,-17.78 119.44,-26.68 194.45,-26.68 51.07,0 103.78,7.77 158.09,23.29 54.32,15.52 104.09,38.94 149.36,70.32 45.26,31.34 82.45,70.46 111.54,117.35 29.1,46.86 43.64,101.99 43.64,165.36 0,43.96 -8.41,83.24 -25.22,117.83 -16.81,34.6 -38.78,65.96 -65.95,94.09 -27.15,28.12 -58.36,53.17 -93.59,75.16 -35.24,21.98 -70.97,42.19 -107.17,60.61 -36.22,18.43 -71.93,35.56 -107.17,51.42 -35.25,15.82 -66.44,31.34 -93.59,46.55 -27.15,15.18 -49.14,30.54 -65.96,46.06 -16.82,15.52 -25.22,32.65 -25.22,51.41 0,12.92 3.72,24.57 11.16,34.92 7.43,10.34 16.97,18.91 28.62,25.7 11.64,6.79 24.55,11.96 38.79,15.52 14.22,3.54 28.13,5.34 41.71,5.34 25.85,0 50.1,-7.45 72.73,-22.31 22.64,-14.89 47.19,-34.92 73.71,-60.14 13.58,-11.64 26.02,-21.01 37.35,-28.13 11.31,-7.12 22.14,-12.45 32.49,-16 10.33,-3.56 20.68,-5.81 31.03,-6.79 10.34,-0.97 21,-1.45 32.02,-1.45 21.33,0 40.87,2.09 58.66,6.29 17.78,4.21 33.13,11.16 46.08,20.86 12.92,9.7 23.1,22.46 30.54,38.31 7.43,15.84 11.15,35.4 11.15,58.68 0,25.22 -6.14,49.46 -18.42,72.73 -12.29,23.29 -28.78,44.95 -49.47,65 -20.7,20.02 -44.6,38.31 -71.77,54.78 -27.15,16.5 -55.6,30.39 -85.34,41.72 -29.75,11.31 -59.81,20.2 -90.2,26.67 -30.4,6.45 -59.16,9.7 -86.32,9.7 -66.6,0 -126.74,-8.74 -180.4,-26.19 -53.67,-17.46 -99.4,-42.04 -137.23,-73.71 -37.83,-31.69 -66.93,-69.68 -87.29,-113.96 -20.38,-44.3 -30.56,-93.28 -30.56,-146.94 0,-45.92 7.93,-86.66 23.77,-122.21 15.84,-35.55 36.53,-67.39 62.07,-95.52 25.53,-28.13 54.8,-52.87 87.77,-74.2 32.99,-21.34 66.76,-40.59 101.36,-57.71 34.58,-17.13 68.36,-32.82 101.35,-47.04 32.97,-14.23 62.23,-27.97 87.77,-41.21 25.53,-13.26 46.22,-26.68 62.07,-40.26 15.85,-13.57 23.77,-28.45 23.77,-44.6 0,-15.52 -4.21,-28.95 -12.61,-40.26 -8.42,-11.33 -19.08,-20.7 -32.01,-28.13 -12.94,-7.44 -27.63,-13.09 -44.13,-16.97 -16.49,-3.89 -32.83,-5.82 -48.98,-5.82 -15.52,0 -31.86,1.93 -48.97,5.82 -17.14,3.88 -33.8,9.36 -49.96,16.49 -16.16,7.1 -31.2,15.18 -45.1,24.25 -13.91,9.05 -25.37,19.06 -34.42,30.06 -24.59,20.68 -47.85,36.53 -69.84,47.53 -21.98,10.98 -43.97,16.49 -65.94,16.49 -21.34,0 -40.26,-3.89 -56.75,-11.65 -16.48,-7.75 -30.39,-18.1 -41.7,-31.04 -11.32,-12.93 -19.72,-28.28 -25.21,-46.06 -5.51,-17.79 -7.93,-36.37 -7.28,-55.77 3.22,-31.04 14.22,-63.2 32.97,-96.5 18.76,-33.31 46.08,-63.7 81.96,-91.17" />
        <path
           inkscape:connector-curvature="0"
           id="path109"
           style="fill:none;stroke:#211c1d;stroke-width:80;stroke-linecap:butt;stroke-linejoin:miter;stroke-miterlimit:10;stroke-dasharray:none;stroke-opacity:1"
           d="m 5578.66,5267.47 c 35.89,-27.48 81.13,-50.12 135.79,-67.89 54.63,-17.78 119.44,-26.68 194.45,-26.68 51.07,0 103.78,7.77 158.09,23.29 54.32,15.52 104.09,38.94 149.36,70.32 45.26,31.34 82.45,70.46 111.54,117.35 29.1,46.86 43.64,101.99 43.64,165.36 0,43.96 -8.41,83.24 -25.22,117.83 -16.81,34.6 -38.78,65.96 -65.95,94.09 -27.15,28.12 -58.36,53.17 -93.59,75.16 -35.24,21.98 -70.97,42.19 -107.17,60.61 -36.22,18.43 -71.93,35.56 -107.17,51.42 -35.25,15.82 -66.44,31.34 -93.59,46.55 -27.15,15.18 -49.14,30.54 -65.96,46.06 -16.82,15.52 -25.22,32.65 -25.22,51.41 0,12.92 3.72,24.57 11.16,34.92 7.43,10.34 16.97,18.91 28.62,25.7 11.64,6.79 24.55,11.96 38.79,15.52 14.22,3.54 28.13,5.34 41.71,5.34 25.85,0 50.1,-7.45 72.73,-22.31 22.64,-14.89 47.19,-34.92 73.71,-60.14 13.58,-11.64 26.02,-21.01 37.35,-28.13 11.31,-7.12 22.14,-12.45 32.49,-16 10.33,-3.56 20.68,-5.81 31.03,-6.79 10.34,-0.97 21,-1.45 32.02,-1.45 21.33,0 40.87,2.09 58.66,6.29 17.78,4.21 33.13,11.16 46.08,20.86 12.92,9.7 23.1,22.46 30.54,38.31 7.43,15.84 11.15,35.4 11.15,58.68 0,25.22 -6.14,49.46 -18.42,72.73 -12.29,23.29 -28.78,44.95 -49.47,65 -20.7,20.02 -44.6,38.31 -71.77,54.78 -27.15,16.5 -55.6,30.39 -85.34,41.72 -29.75,11.31 -59.81,20.2 -90.2,26.67 -30.4,6.45 -59.16,9.7 -86.32,9.7 -66.6,0 -126.74,-8.74 -180.4,-26.19 -53.67,-17.46 -99.4,-42.04 -137.23,-73.71 -37.83,-31.69 -66.93,-69.68 -87.29,-113.96 -20.38,-44.3 -30.56,-93.28 -30.56,-146.94 0,-45.92 7.93,-86.66 23.77,-122.21 15.84,-35.55 36.53,-67.39 62.07,-95.52 25.53,-28.13 54.8,-52.87 87.77,-74.2 32.99,-21.34 66.76,-40.59 101.36,-57.71 34.58,-17.13 68.36,-32.82 101.35,-47.04 32.97,-14.23 62.23,-27.97 87.77,-41.21 25.53,-13.26 46.22,-26.68 62.07,-40.26 15.85,-13.57 23.77,-28.45 23.77,-44.6 0,-15.52 -4.21,-28.95 -12.61,-40.26 -8.42,-11.33 -19.08,-20.7 -32.01,-28.13 -12.94,-7.44 -27.63,-13.09 -44.13,-16.97 -16.49,-3.89 -32.83,-5.82 -48.98,-5.82 -15.52,0 -31.86,1.93 -48.97,5.82 -17.14,3.88 -33.8,9.36 -49.96,16.49 -16.16,7.1 -31.2,15.18 -45.1,24.25 -13.91,9.05 -25.37,19.06 -34.42,30.06 -24.59,20.68 -47.85,36.53 -69.84,47.53 -21.98,10.98 -43.97,16.49 -65.94,16.49 -21.34,0 -40.26,-3.89 -56.75,-11.65 -16.48,-7.75 -30.39,-18.1 -41.7,-31.04 -11.32,-12.93 -19.72,-28.28 -25.21,-46.06 -5.51,-17.79 -7.93,-36.37 -7.28,-55.77 3.22,-31.04 14.22,-63.2 32.97,-96.5 18.76,-33.31 46.08,-63.7 81.96,-91.17 z" />
        <path
           inkscape:connector-curvature="0"
           id="path111"
           style="fill:#49a4e0;fill-opacity:1;fill-rule:nonzero;stroke:none"
           d="M 6603.33,6271.78 6602.35,5685 c 0,-74.36 14.56,-144.03 43.65,-209.01 29.1,-64.98 68.86,-121.56 119.3,-169.72 50.42,-48.18 109.43,-86.18 177,-113.96 67.56,-27.79 140.14,-41.7 217.73,-41.7 50.44,0 99.25,6.47 146.45,19.39 47.19,12.94 91.33,31.03 132.39,54.32 41.05,23.27 78.57,51.22 112.51,83.88 33.95,32.65 63.19,68.87 87.78,108.63 24.56,39.76 43.8,82.28 57.7,127.55 13.9,45.24 21.17,92.13 21.82,140.62 l -0.96,587.75 c 0,34.91 -6.31,62.88 -18.92,83.89 -12.61,21.01 -29.26,37.18 -49.94,48.49 -20.71,11.31 -44.13,18.92 -70.32,22.8 -26.2,3.87 -52.54,5.82 -79.05,5.82 -20.05,0 -36.37,-1.45 -48.98,-4.36 -12.61,-2.91 -22.64,-7.14 -30.06,-12.61 -7.44,-5.51 -12.61,-12.13 -15.52,-19.88 -2.91,-7.77 -4.36,-16.5 -4.36,-26.2 0,-15.52 1.93,-31.68 5.81,-48.49 3.89,-16.83 6.15,-33.63 6.8,-50.43 l 1.93,-588.71 c 0,-31.04 -6.79,-60.47 -20.36,-88.27 -13.58,-27.8 -31.86,-52.22 -54.8,-73.23 -22.96,-21.01 -49.94,-37.5 -80.98,-49.46 -31.04,-11.96 -64.02,-17.93 -98.94,-17.93 -38.79,0 -73.88,5.97 -105.22,17.93 -31.38,11.96 -58.05,28.45 -80.02,49.46 -21.99,21.01 -38.96,45.43 -50.92,73.23 -11.97,27.8 -17.95,57.23 -17.95,88.27 v 589.68 c -1.3,34.26 -8.09,61.9 -20.36,82.91 -12.28,21.02 -28.13,37.35 -47.53,48.99 -19.38,11.63 -42.03,19.4 -67.89,23.28 -25.86,3.87 -53.02,5.82 -81.47,5.82 -20.04,0 -36.53,-1.45 -49.46,-4.36 -12.94,-2.91 -23.12,-7.14 -30.54,-12.61 -7.45,-5.51 -12.61,-12.13 -15.52,-19.88 -2.91,-7.77 -4.36,-16.5 -4.36,-26.2 0,-15.52 2.08,-31.68 6.29,-48.49 4.19,-16.83 6.95,-33.63 8.25,-50.43" />
        <path
           inkscape:connector-curvature="0"
           id="path113"
           style="fill:none;stroke:#211c1d;stroke-width:80;stroke-linecap:butt;stroke-linejoin:miter;stroke-miterlimit:10;stroke-dasharray:none;stroke-opacity:1"
           d="M 6603.33,6271.78 6602.35,5685 c 0,-74.36 14.56,-144.03 43.65,-209.01 29.1,-64.98 68.86,-121.56 119.3,-169.72 50.42,-48.18 109.43,-86.18 177,-113.96 67.56,-27.79 140.14,-41.7 217.73,-41.7 50.44,0 99.25,6.47 146.45,19.39 47.19,12.94 91.33,31.03 132.39,54.32 41.05,23.27 78.57,51.22 112.51,83.88 33.95,32.65 63.19,68.87 87.78,108.63 24.56,39.76 43.8,82.28 57.7,127.55 13.9,45.24 21.17,92.13 21.82,140.62 l -0.96,587.75 c 0,34.91 -6.31,62.88 -18.92,83.89 -12.61,21.01 -29.26,37.18 -49.94,48.49 -20.71,11.31 -44.13,18.92 -70.32,22.8 -26.2,3.87 -52.54,5.82 -79.05,5.82 -20.05,0 -36.37,-1.45 -48.98,-4.36 -12.61,-2.91 -22.64,-7.14 -30.06,-12.61 -7.44,-5.51 -12.61,-12.13 -15.52,-19.88 -2.91,-7.77 -4.36,-16.5 -4.36,-26.2 0,-15.52 1.93,-31.68 5.81,-48.49 3.89,-16.83 6.15,-33.63 6.8,-50.43 l 1.93,-588.71 c 0,-31.04 -6.79,-60.47 -20.36,-88.27 -13.58,-27.8 -31.86,-52.22 -54.8,-73.23 -22.96,-21.01 -49.94,-37.5 -80.98,-49.46 -31.04,-11.96 -64.02,-17.93 -98.94,-17.93 -38.79,0 -73.88,5.97 -105.22,17.93 -31.38,11.96 -58.05,28.45 -80.02,49.46 -21.99,21.01 -38.96,45.43 -50.92,73.23 -11.97,27.8 -17.95,57.23 -17.95,88.27 v 589.68 c -1.3,34.26 -8.09,61.9 -20.36,82.91 -12.28,21.02 -28.13,37.35 -47.53,48.99 -19.38,11.63 -42.03,19.4 -67.89,23.28 -25.86,3.87 -53.02,5.82 -81.47,5.82 -20.04,0 -36.53,-1.45 -49.46,-4.36 -12.94,-2.91 -23.12,-7.14 -30.54,-12.61 -7.45,-5.51 -12.61,-12.13 -15.52,-19.88 -2.91,-7.77 -4.36,-16.5 -4.36,-26.2 0,-15.52 2.08,-31.68 6.29,-48.49 4.19,-16.83 6.95,-33.63 8.25,-50.43 z" />
        <path
           inkscape:connector-curvature="0"
           id="path115"
           style="fill:#49a4e0;fill-opacity:1;fill-rule:nonzero;stroke:none"
           d="m 8327.72,5721.85 h 268.68 c 17.45,0 34.26,-2.91 50.44,-8.72 16.15,-5.82 30.69,-14.39 43.63,-25.7 12.93,-11.33 23.27,-25.39 31.03,-42.19 7.77,-16.82 11.64,-36.22 11.64,-58.19 0,-21.34 -4.05,-40.26 -12.13,-56.74 -8.08,-16.49 -18.6,-30.4 -31.5,-41.71 -12.97,-11.32 -27.66,-19.88 -44.13,-25.7 -16.49,-5.81 -32.83,-8.72 -48.98,-8.72 h -268.68 z m 0,448.09 h 257.05 c 13.55,0 26.64,-2.6 39.26,-7.76 12.6,-5.19 23.77,-12.61 33.45,-22.31 9.72,-9.69 17.49,-21.01 23.3,-33.95 5.82,-12.93 8.73,-27.15 8.73,-42.67 0,-14.88 -2.75,-28.78 -8.26,-41.7 -5.51,-12.95 -12.94,-24.26 -22.31,-33.94 -9.38,-9.7 -20.36,-17.47 -32.96,-23.29 -12.62,-5.81 -25.71,-8.72 -39.3,-8.72 h -258.96 z m -305.02,144.03 0.49,-4.36 c 1.29,-7.14 2.57,-13.91 3.87,-20.38 1.3,-6.47 1.95,-13.26 1.95,-20.36 v -933.99 c 0,-20.7 3.22,-40.59 9.7,-59.65 6.45,-19.07 16,-36.05 28.61,-50.91 12.61,-14.89 28.43,-26.85 47.53,-35.9 19.06,-9.03 41.21,-13.57 66.43,-13.57 h 432.57 c 48.49,0 95.06,7.45 139.65,22.3 44.62,14.87 85.03,36.2 121.24,64.02 36.2,27.79 67.24,61.42 93.1,100.86 25.87,39.44 43.67,83.41 53.35,131.91 9.07,38.14 11.98,78.55 8.73,121.24 -1.92,37.48 -9.22,70.79 -21.82,99.88 -12.59,29.1 -26.67,53.84 -42.17,74.2 -15.54,20.36 -30.73,36.21 -45.61,47.53 -14.86,11.3 -25.19,18.26 -31.04,20.84 3.9,1.95 10.21,7.6 18.94,16.99 8.72,9.36 17.76,21.82 27.13,37.33 9.38,15.52 17.95,33.78 25.72,54.8 7.76,21 12.28,44.45 13.58,70.32 1.27,23.27 0.81,45.74 -1.45,67.4 -2.29,21.66 -6.01,42.51 -11.17,62.56 -10.99,42.03 -28.29,79.53 -51.9,112.5 -23.6,32.98 -51.73,60.94 -84.38,83.9 -32.64,22.95 -68.69,40.57 -108.11,52.85 -39.46,12.29 -80.52,18.43 -123.19,18.43 H 8106.6 c -18.77,0 -34.12,-1.61 -46.07,-4.84 -11.98,-3.25 -21.34,-7.62 -28.13,-13.09 -6.79,-5.51 -11.48,-12.13 -14.07,-19.88 -2.58,-7.77 -3.86,-16.19 -3.86,-25.22 0,-16.17 2.56,-33.95 7.75,-53.35 l 0.48,-4.36" />
        <path
           inkscape:connector-curvature="0"
           id="path117"
           style="fill:none;stroke:#211c1d;stroke-width:80;stroke-linecap:butt;stroke-linejoin:miter;stroke-miterlimit:10;stroke-dasharray:none;stroke-opacity:1"
           d="m 8327.72,5721.85 h 268.68 c 17.45,0 34.26,-2.91 50.44,-8.72 16.15,-5.82 30.69,-14.39 43.63,-25.7 12.93,-11.33 23.27,-25.39 31.03,-42.19 7.77,-16.82 11.64,-36.22 11.64,-58.19 0,-21.34 -4.05,-40.26 -12.13,-56.74 -8.08,-16.49 -18.6,-30.4 -31.5,-41.71 -12.97,-11.32 -27.66,-19.88 -44.13,-25.7 -16.49,-5.81 -32.83,-8.72 -48.98,-8.72 h -268.68 z m 0,448.09 h 257.05 c 13.55,0 26.64,-2.6 39.26,-7.76 12.6,-5.19 23.77,-12.61 33.45,-22.31 9.72,-9.69 17.49,-21.01 23.3,-33.95 5.82,-12.93 8.73,-27.15 8.73,-42.67 0,-14.88 -2.75,-28.78 -8.26,-41.7 -5.51,-12.95 -12.94,-24.26 -22.31,-33.94 -9.38,-9.7 -20.36,-17.47 -32.96,-23.29 -12.62,-5.81 -25.71,-8.72 -39.3,-8.72 h -258.96 z m -305.02,144.03 0.49,-4.36 c 1.29,-7.14 2.57,-13.91 3.87,-20.38 1.3,-6.47 1.95,-13.26 1.95,-20.36 v -933.99 c 0,-20.7 3.22,-40.59 9.7,-59.65 6.45,-19.07 16,-36.05 28.61,-50.91 12.61,-14.89 28.43,-26.85 47.53,-35.9 19.06,-9.03 41.21,-13.57 66.43,-13.57 h 432.57 c 48.49,0 95.06,7.45 139.65,22.3 44.62,14.87 85.03,36.2 121.24,64.02 36.2,27.79 67.24,61.42 93.1,100.86 25.87,39.44 43.67,83.41 53.35,131.91 9.07,38.14 11.98,78.55 8.73,121.24 -1.92,37.48 -9.22,70.79 -21.82,99.88 -12.59,29.1 -26.67,53.84 -42.17,74.2 -15.54,20.36 -30.73,36.21 -45.61,47.53 -14.86,11.3 -25.19,18.26 -31.04,20.84 3.9,1.95 10.21,7.6 18.94,16.99 8.72,9.36 17.76,21.82 27.13,37.33 9.38,15.52 17.95,33.78 25.72,54.8 7.76,21 12.28,44.45 13.58,70.32 1.27,23.27 0.81,45.74 -1.45,67.4 -2.29,21.66 -6.01,42.51 -11.17,62.56 -10.99,42.03 -28.29,79.53 -51.9,112.5 -23.6,32.98 -51.73,60.94 -84.38,83.9 -32.64,22.95 -68.69,40.57 -108.11,52.85 -39.46,12.29 -80.52,18.43 -123.19,18.43 H 8106.6 c -18.77,0 -34.12,-1.61 -46.07,-4.84 -11.98,-3.25 -21.34,-7.62 -28.13,-13.09 -6.79,-5.51 -11.48,-12.13 -14.07,-19.88 -2.58,-7.77 -3.86,-16.19 -3.86,-25.22 0,-16.17 2.56,-33.95 7.75,-53.35 z" />
        <path
           inkscape:connector-curvature="0"
           id="path119"
           style="fill:#49a4e0;fill-opacity:1;fill-rule:nonzero;stroke:none"
           d="M 9258.8,6271.78 9257.81,5685 c 0,-74.36 14.58,-144.03 43.66,-209.01 29.09,-64.98 68.85,-121.56 119.29,-169.72 50.44,-48.18 109.45,-86.18 177,-113.96 67.58,-27.79 140.14,-41.7 217.74,-41.7 50.44,0 99.24,6.47 146.46,19.39 47.14,12.94 91.34,31.03 132.34,54.32 41.1,23.27 78.6,51.22 112.5,83.88 34,32.65 63.2,68.87 87.8,108.63 24.6,39.76 43.8,82.28 57.7,127.55 13.9,45.24 21.2,92.13 21.9,140.62 l -1,587.75 c 0,34.91 -6.3,62.88 -18.9,83.89 -12.6,21.01 -29.3,37.18 -50,48.49 -20.7,11.31 -44.1,18.92 -70.3,22.8 -26.2,3.87 -52.5,5.82 -79,5.82 -20.1,0 -36.4,-1.45 -49,-4.36 -12.6,-2.91 -22.7,-7.14 -30.1,-12.61 -7.4,-5.51 -12.6,-12.13 -15.5,-19.88 -2.9,-7.77 -4.4,-16.5 -4.4,-26.2 0,-15.52 2,-31.68 5.8,-48.49 3.9,-16.83 6.2,-33.63 6.9,-50.43 l 1.9,-588.71 c 0,-31.04 -6.8,-60.47 -20.4,-88.27 -13.6,-27.8 -31.8,-52.22 -54.79,-73.23 -22.96,-21.01 -49.94,-37.5 -80.98,-49.46 -31.04,-11.96 -64.02,-17.93 -98.93,-17.93 -38.8,0 -73.89,5.97 -105.23,17.93 -31.38,11.96 -58.05,28.45 -80.02,49.46 -21.97,21.01 -38.96,45.43 -50.9,73.23 -11.98,27.8 -17.95,57.23 -17.95,88.27 v 589.68 c -1.3,34.26 -8.11,61.9 -20.36,82.91 -12.29,21.02 -28.13,37.35 -47.53,48.99 -19.4,11.63 -42.05,19.4 -67.89,23.28 -25.87,3.87 -53.04,5.82 -81.47,5.82 -20.06,0 -36.55,-1.45 -49.48,-4.36 -12.94,-2.91 -23.12,-7.14 -30.54,-12.61 -7.43,-5.51 -12.6,-12.13 -15.51,-19.88 -2.91,-7.77 -4.36,-16.5 -4.36,-26.2 0,-15.52 2.07,-31.68 6.28,-48.49 4.21,-16.83 6.96,-33.63 8.26,-50.43" />
        <path
           inkscape:connector-curvature="0"
           id="path121"
           style="fill:none;stroke:#211c1d;stroke-width:80;stroke-linecap:butt;stroke-linejoin:miter;stroke-miterlimit:10;stroke-dasharray:none;stroke-opacity:1"
           d="M 9258.8,6271.78 9257.81,5685 c 0,-74.36 14.58,-144.03 43.66,-209.01 29.09,-64.98 68.85,-121.56 119.29,-169.72 50.44,-48.18 109.45,-86.18 177,-113.96 67.58,-27.79 140.14,-41.7 217.74,-41.7 50.44,0 99.24,6.47 146.46,19.39 47.14,12.94 91.34,31.03 132.34,54.32 41.1,23.27 78.6,51.22 112.5,83.88 34,32.65 63.2,68.87 87.8,108.63 24.6,39.76 43.8,82.28 57.7,127.55 13.9,45.24 21.2,92.13 21.9,140.62 l -1,587.75 c 0,34.91 -6.3,62.88 -18.9,83.89 -12.6,21.01 -29.3,37.18 -50,48.49 -20.7,11.31 -44.1,18.92 -70.3,22.8 -26.2,3.87 -52.5,5.82 -79,5.82 -20.1,0 -36.4,-1.45 -49,-4.36 -12.6,-2.91 -22.7,-7.14 -30.1,-12.61 -7.4,-5.51 -12.6,-12.13 -15.5,-19.88 -2.9,-7.77 -4.4,-16.5 -4.4,-26.2 0,-15.52 2,-31.68 5.8,-48.49 3.9,-16.83 6.2,-33.63 6.9,-50.43 l 1.9,-588.71 c 0,-31.04 -6.8,-60.47 -20.4,-88.27 -13.6,-27.8 -31.8,-52.22 -54.79,-73.23 -22.96,-21.01 -49.94,-37.5 -80.98,-49.46 -31.04,-11.96 -64.02,-17.93 -98.93,-17.93 -38.8,0 -73.89,5.97 -105.23,17.93 -31.38,11.96 -58.05,28.45 -80.02,49.46 -21.97,21.01 -38.96,45.43 -50.9,73.23 -11.98,27.8 -17.95,57.23 -17.95,88.27 v 589.68 c -1.3,34.26 -8.11,61.9 -20.36,82.91 -12.29,21.02 -28.13,37.35 -47.53,48.99 -19.4,11.63 -42.05,19.4 -67.89,23.28 -25.87,3.87 -53.04,5.82 -81.47,5.82 -20.06,0 -36.55,-1.45 -49.48,-4.36 -12.94,-2.91 -23.12,-7.14 -30.54,-12.61 -7.43,-5.51 -12.6,-12.13 -15.51,-19.88 -2.91,-7.77 -4.36,-16.5 -4.36,-26.2 0,-15.52 2.07,-31.68 6.28,-48.49 4.21,-16.83 6.96,-33.63 8.26,-50.43 z" />
        <path
           inkscape:connector-curvature="0"
           id="path123"
           style="fill:#49a4e0;fill-opacity:1;fill-rule:nonzero;stroke:none"
           d="m 10981.3,6172.85 h 166.8 c 27.8,0 54,-5.66 78.5,-16.94 24.6,-11.29 46.1,-26.44 64.6,-45.47 18.4,-19.03 32.8,-41.11 43.1,-66.27 10.3,-25.15 15.5,-51.59 15.5,-79.33 0,-27.75 -5.2,-53.23 -15.5,-76.43 -10.3,-23.23 -24.7,-43.06 -43.1,-59.51 -18.5,-16.44 -40,-29.18 -64.6,-38.21 -24.5,-9.04 -50.7,-13.56 -78.5,-13.56 h -166.8 z m -297.8,109.59 v -955.31 c 0,-21.36 3.9,-41.24 11.7,-59.66 7.7,-18.43 18.4,-34.6 32,-48.49 13.5,-13.91 29.7,-24.74 48.4,-32.49 18.8,-7.77 38.8,-11.64 60.2,-11.64 21.3,0 41.2,3.87 59.6,11.64 18.5,7.75 34.5,18.58 48,32.49 13.6,13.89 24.3,30.06 32,48.49 7.8,18.42 11.7,38.3 11.7,59.66 v 188.15 h 161 c 15.6,0 30.9,0.75 46.1,2.01 l 197.3,-285.22 c 12.9,-16.17 27.8,-28.95 44.6,-38.31 16.9,-9.36 34.5,-15.18 52.9,-17.45 18.4,-2.26 37,-0.81 55.8,4.36 18.7,5.18 36.5,14.22 53.3,27.15 16.8,12.94 29.9,28.13 39.3,45.58 9.4,17.47 15.2,35.56 17.4,54.32 2.3,18.74 0.7,37.49 -4.8,56.26 -5.5,18.73 -15,35.88 -28.6,51.4 l -159.5,201.3 c 12.2,8.99 24,18.49 35.3,28.56 46,40.73 82.5,89.05 109.6,145 27.2,55.91 40.8,116.87 40.8,182.81 0,66.59 -13.6,128.51 -40.8,185.74 -27.1,57.21 -63.6,107 -109.6,149.36 -45.9,42.33 -98.9,75.64 -159,99.89 -60.2,24.26 -123.5,36.37 -190.1,36.37 h -378.3 c -20,0 -36.5,-1.45 -49.4,-4.36 -13,-2.91 -23.1,-7.12 -30.6,-12.61 -7.4,-5.49 -12.6,-12.12 -15.5,-19.88 -2.9,-7.75 -4.4,-16.5 -4.4,-26.18 0,-14.89 2.1,-30.9 6.4,-48.01 4.1,-17.14 6.6,-34.11 7.2,-50.93" />
        <path
           inkscape:connector-curvature="0"
           id="path125"
           style="fill:none;stroke:#211c1d;stroke-width:80;stroke-linecap:butt;stroke-linejoin:miter;stroke-miterlimit:10;stroke-dasharray:none;stroke-opacity:1"
           d="m 10981.3,6172.85 h 166.8 c 27.8,0 54,-5.66 78.5,-16.94 24.6,-11.29 46.1,-26.44 64.6,-45.47 18.4,-19.03 32.8,-41.11 43.1,-66.27 10.3,-25.15 15.5,-51.59 15.5,-79.33 0,-27.75 -5.2,-53.23 -15.5,-76.43 -10.3,-23.23 -24.7,-43.06 -43.1,-59.51 -18.5,-16.44 -40,-29.18 -64.6,-38.21 -24.5,-9.04 -50.7,-13.56 -78.5,-13.56 h -166.8 z m -297.8,109.59 v -955.31 c 0,-21.36 3.9,-41.24 11.7,-59.66 7.7,-18.43 18.4,-34.6 32,-48.49 13.5,-13.91 29.7,-24.74 48.4,-32.49 18.8,-7.77 38.8,-11.64 60.2,-11.64 21.3,0 41.2,3.87 59.6,11.64 18.5,7.75 34.5,18.58 48,32.49 13.6,13.89 24.3,30.06 32,48.49 7.8,18.42 11.7,38.3 11.7,59.66 v 188.15 h 161 c 15.6,0 30.9,0.75 46.1,2.01 l 197.3,-285.22 c 12.9,-16.17 27.8,-28.95 44.6,-38.31 16.9,-9.36 34.5,-15.18 52.9,-17.45 18.4,-2.26 37,-0.81 55.8,4.36 18.7,5.18 36.5,14.22 53.3,27.15 16.8,12.94 29.9,28.13 39.3,45.58 9.4,17.47 15.2,35.56 17.4,54.32 2.3,18.74 0.7,37.49 -4.8,56.26 -5.5,18.73 -15,35.88 -28.6,51.4 l -159.5,201.3 c 12.2,8.99 24,18.49 35.3,28.56 46,40.73 82.5,89.05 109.6,145 27.2,55.91 40.8,116.87 40.8,182.81 0,66.59 -13.6,128.51 -40.8,185.74 -27.1,57.21 -63.6,107 -109.6,149.36 -45.9,42.33 -98.9,75.64 -159,99.89 -60.2,24.26 -123.5,36.37 -190.1,36.37 h -378.3 c -20,0 -36.5,-1.45 -49.4,-4.36 -13,-2.91 -23.1,-7.12 -30.6,-12.61 -7.4,-5.49 -12.6,-12.12 -15.5,-19.88 -2.9,-7.75 -4.4,-16.5 -4.4,-26.18 0,-14.89 2.1,-30.9 6.4,-48.01 4.1,-17.14 6.6,-34.11 7.2,-50.93 z" />
        <path
           inkscape:connector-curvature="0"
           id="path127"
           style="fill:#49a4e0;fill-opacity:1;fill-rule:nonzero;stroke:none"
           d="m 12242.1,5721.85 h 268.7 c 17.4,0 34.2,-2.91 50.4,-8.72 16.1,-5.82 30.7,-14.39 43.6,-25.7 13,-11.33 23.3,-25.39 31.1,-42.19 7.7,-16.82 11.6,-36.22 11.6,-58.19 0,-21.34 -4.1,-40.26 -12.1,-56.74 -8.1,-16.49 -18.6,-30.4 -31.5,-41.71 -13,-11.32 -27.7,-19.88 -44.2,-25.7 -16.5,-5.81 -32.8,-8.72 -48.9,-8.72 h -268.7 z m 0,448.09 h 257 c 13.6,0 26.7,-2.6 39.3,-7.76 12.6,-5.19 23.8,-12.61 33.4,-22.31 9.8,-9.69 17.5,-21.01 23.3,-33.95 5.9,-12.93 8.8,-27.15 8.8,-42.67 0,-14.88 -2.8,-28.78 -8.3,-41.7 -5.5,-12.95 -12.9,-24.26 -22.3,-33.94 -9.4,-9.7 -20.4,-17.47 -33,-23.29 -12.6,-5.81 -25.7,-8.72 -39.3,-8.72 h -258.9 z m -305,144.03 0.5,-4.36 c 1.2,-7.14 2.5,-13.91 3.8,-20.38 1.3,-6.47 2,-13.26 2,-20.36 v -933.99 c 0,-20.7 3.2,-40.59 9.7,-59.65 6.4,-19.07 16,-36.05 28.6,-50.91 12.6,-14.89 28.4,-26.85 47.5,-35.9 19.1,-9.03 41.2,-13.57 66.5,-13.57 h 432.5 c 48.5,0 95.1,7.45 139.7,22.3 44.6,14.87 85,36.2 121.2,64.02 36.2,27.79 67.2,61.42 93.1,100.86 25.9,39.44 43.7,83.41 53.3,131.91 9.1,38.14 12,78.55 8.8,121.24 -1.9,37.48 -9.2,70.79 -21.8,99.88 -12.6,29.1 -26.7,53.84 -42.2,74.2 -15.6,20.36 -30.7,36.21 -45.6,47.53 -14.9,11.3 -25.2,18.26 -31.1,20.84 3.9,1.95 10.2,7.6 19,16.99 8.7,9.36 17.7,21.82 27.1,37.33 9.4,15.52 18,33.78 25.7,54.8 7.8,21 12.3,44.45 13.6,70.32 1.3,23.27 0.8,45.74 -1.4,67.4 -2.3,21.66 -6,42.51 -11.2,62.56 -11,42.03 -28.3,79.53 -51.9,112.5 -23.6,32.98 -51.7,60.94 -84.4,83.9 -32.6,22.95 -68.7,40.57 -108.1,52.85 -39.5,12.29 -80.5,18.43 -123.2,18.43 H 12021 c -18.8,0 -34.1,-1.61 -46.1,-4.84 -12,-3.25 -21.3,-7.62 -28.1,-13.09 -6.8,-5.51 -11.5,-12.13 -14.1,-19.88 -2.6,-7.77 -3.9,-16.19 -3.9,-25.22 0,-16.17 2.6,-33.95 7.8,-53.35 l 0.5,-4.36" />
        <path
           inkscape:connector-curvature="0"
           id="path129"
           style="fill:none;stroke:#211c1d;stroke-width:80;stroke-linecap:butt;stroke-linejoin:miter;stroke-miterlimit:10;stroke-dasharray:none;stroke-opacity:1"
           d="m 12242.1,5721.85 h 268.7 c 17.4,0 34.2,-2.91 50.4,-8.72 16.1,-5.82 30.7,-14.39 43.6,-25.7 13,-11.33 23.3,-25.39 31.1,-42.19 7.7,-16.82 11.6,-36.22 11.6,-58.19 0,-21.34 -4.1,-40.26 -12.1,-56.74 -8.1,-16.49 -18.6,-30.4 -31.5,-41.71 -13,-11.32 -27.7,-19.88 -44.2,-25.7 -16.5,-5.81 -32.8,-8.72 -48.9,-8.72 h -268.7 z m 0,448.09 h 257 c 13.6,0 26.7,-2.6 39.3,-7.76 12.6,-5.19 23.8,-12.61 33.4,-22.31 9.8,-9.69 17.5,-21.01 23.3,-33.95 5.9,-12.93 8.8,-27.15 8.8,-42.67 0,-14.88 -2.8,-28.78 -8.3,-41.7 -5.5,-12.95 -12.9,-24.26 -22.3,-33.94 -9.4,-9.7 -20.4,-17.47 -33,-23.29 -12.6,-5.81 -25.7,-8.72 -39.3,-8.72 h -258.9 z m -305,144.03 0.5,-4.36 c 1.2,-7.14 2.5,-13.91 3.8,-20.38 1.3,-6.47 2,-13.26 2,-20.36 v -933.99 c 0,-20.7 3.2,-40.59 9.7,-59.65 6.4,-19.07 16,-36.05 28.6,-50.91 12.6,-14.89 28.4,-26.85 47.5,-35.9 19.1,-9.03 41.2,-13.57 66.5,-13.57 h 432.5 c 48.5,0 95.1,7.45 139.7,22.3 44.6,14.87 85,36.2 121.2,64.02 36.2,27.79 67.2,61.42 93.1,100.86 25.9,39.44 43.7,83.41 53.3,131.91 9.1,38.14 12,78.55 8.8,121.24 -1.9,37.48 -9.2,70.79 -21.8,99.88 -12.6,29.1 -26.7,53.84 -42.2,74.2 -15.6,20.36 -30.7,36.21 -45.6,47.53 -14.9,11.3 -25.2,18.26 -31.1,20.84 3.9,1.95 10.2,7.6 19,16.99 8.7,9.36 17.7,21.82 27.1,37.33 9.4,15.52 18,33.78 25.7,54.8 7.8,21 12.3,44.45 13.6,70.32 1.3,23.27 0.8,45.74 -1.4,67.4 -2.3,21.66 -6,42.51 -11.2,62.56 -11,42.03 -28.3,79.53 -51.9,112.5 -23.6,32.98 -51.7,60.94 -84.4,83.9 -32.6,22.95 -68.7,40.57 -108.1,52.85 -39.5,12.29 -80.5,18.43 -123.2,18.43 H 12021 c -18.8,0 -34.1,-1.61 -46.1,-4.84 -12,-3.25 -21.3,-7.62 -28.1,-13.09 -6.8,-5.51 -11.5,-12.13 -14.1,-19.88 -2.6,-7.77 -3.9,-16.19 -3.9,-25.22 0,-16.17 2.6,-33.95 7.8,-53.35 z" />
        <path
           inkscape:connector-curvature="0"
           id="path131"
           style="fill:#49a4e0;fill-opacity:1;fill-rule:nonzero;stroke:none"
           d="m 13682.3,5969.18 133.9,-345.28 h -268.7 z m -504.8,-739.05 c 13.3,-16.81 29.9,-30.4 50,-40.73 20,-10.34 42,-15.52 65.9,-15.52 33,-1.29 62.1,6.96 87.3,24.74 25.2,17.76 44.9,43.15 59.2,76.12 l 47.5,114.46 h 388 l 46.5,-114.46 c 10.3,-26.52 25.5,-47.86 45.6,-64.01 20,-16.17 41.8,-26.83 65.5,-32.01 23.5,-5.17 47.3,-4.84 71.2,0.98 23.9,5.81 45.3,18.1 64,36.85 16.8,14.22 29.5,30.71 37.9,49.46 8.4,18.75 12.6,38.46 12.6,59.17 -0.7,9.05 -1.8,18.42 -3.4,28.12 -1.6,9.7 -4.1,19.06 -7.3,28.13 l -374.4,923.32 c -7.7,16.81 -16.4,32.98 -26.2,48.5 -9.6,15.52 -20.7,29.41 -32.9,41.7 -12.3,12.28 -26.2,21.97 -41.7,29.1 -15.5,7.1 -33,10.66 -52.4,10.66 -27.2,0 -49.5,-2.27 -66.9,-6.78 -17.5,-4.53 -31.5,-10.52 -42.2,-17.94 -10.7,-7.45 -18.6,-16 -23.8,-25.7 -5.2,-9.7 -9,-20.05 -11.6,-31.04 -2.6,-11 -4.8,-22.31 -6.8,-33.94 -1.9,-11.65 -4.9,-22.96 -8.7,-33.95 l -350.1,-866.1 c -4.6,-11 -8.6,-21.51 -12.2,-31.52 -3.5,-10.04 -6.9,-20.54 -10.2,-31.53 -4.5,-23.27 -4,-45.92 1.5,-67.89 5.5,-21.98 14.8,-41.38 28.1,-58.19" />
        <path
           inkscape:connector-curvature="0"
           id="path133"
           style="fill:none;stroke:#211c1d;stroke-width:80;stroke-linecap:butt;stroke-linejoin:miter;stroke-miterlimit:10;stroke-dasharray:none;stroke-opacity:1"
           d="m 13682.3,5969.18 133.9,-345.28 h -268.7 z m -504.8,-739.05 c 13.3,-16.81 29.9,-30.4 50,-40.73 20,-10.34 42,-15.52 65.9,-15.52 33,-1.29 62.1,6.96 87.3,24.74 25.2,17.76 44.9,43.15 59.2,76.12 l 47.5,114.46 h 388 l 46.5,-114.46 c 10.3,-26.52 25.5,-47.86 45.6,-64.01 20,-16.17 41.8,-26.83 65.5,-32.01 23.5,-5.17 47.3,-4.84 71.2,0.98 23.9,5.81 45.3,18.1 64,36.85 16.8,14.22 29.5,30.71 37.9,49.46 8.4,18.75 12.6,38.46 12.6,59.17 -0.7,9.05 -1.8,18.42 -3.4,28.12 -1.6,9.7 -4.1,19.06 -7.3,28.13 l -374.4,923.32 c -7.7,16.81 -16.4,32.98 -26.2,48.5 -9.6,15.52 -20.7,29.41 -32.9,41.7 -12.3,12.28 -26.2,21.97 -41.7,29.1 -15.5,7.1 -33,10.66 -52.4,10.66 -27.2,0 -49.5,-2.27 -66.9,-6.78 -17.5,-4.53 -31.5,-10.52 -42.2,-17.94 -10.7,-7.45 -18.6,-16 -23.8,-25.7 -5.2,-9.7 -9,-20.05 -11.6,-31.04 -2.6,-11 -4.8,-22.31 -6.8,-33.94 -1.9,-11.65 -4.9,-22.96 -8.7,-33.95 l -350.1,-866.1 c -4.6,-11 -8.6,-21.51 -12.2,-31.52 -3.5,-10.04 -6.9,-20.54 -10.2,-31.53 -4.5,-23.27 -4,-45.92 1.5,-67.89 5.5,-21.98 14.8,-41.38 28.1,-58.19 z" />
        <path
           inkscape:connector-curvature="0"
           id="path135"
           style="fill:#49a4e0;fill-opacity:1;fill-rule:nonzero;stroke:none"
           d="m 14517.4,6271.78 v -945.63 c 0,-21.33 3.9,-41.22 11.6,-59.64 7.8,-18.43 18.4,-34.44 32,-48.01 13.6,-13.59 29.6,-24.26 48.1,-32.01 18.4,-7.77 38.6,-11.64 60.6,-11.64 21.3,0 41,3.87 59.1,11.64 18.1,7.75 33.8,18.42 47.1,32.01 13.2,13.57 23.5,29.58 31,48.01 7.4,18.42 11.1,38.61 11.1,60.62 0,41.37 0,84.69 0,129.96 0,45.24 0.2,90.83 0.5,136.75 0.3,45.89 0.5,91.31 0.5,136.26 0,44.93 0,88.4 0,130.46 l 529.6,-627.52 c 15.5,-18.12 33.6,-32.33 54.3,-42.67 20.7,-10.33 42.3,-15.52 65,-15.52 23.3,0 44.2,4.54 63,13.57 18.7,9.05 34.6,21.34 47.5,36.86 12.9,15.51 22.8,33.29 29.6,53.34 6.8,20.04 10.2,41.37 10.2,64.02 v 938.84 c 0,31.67 -4.9,57.54 -14.5,77.59 -9.8,20.03 -23,35.55 -39.8,46.55 -16.9,10.99 -36.5,18.43 -59.2,22.31 -22.6,3.87 -47.2,5.82 -73.7,5.82 -28.5,0 -51.2,-1.15 -68.4,-3.4 -17.1,-2.28 -30.2,-5.82 -39.2,-10.66 -9.1,-4.86 -15.1,-11.33 -18,-19.41 -2.9,-8.09 -4.4,-17.94 -4.4,-29.58 0,-16.16 2.3,-32.97 6.8,-50.43 4.6,-17.46 6.9,-35.57 6.9,-54.31 l 1.9,-518.89 -521.8,619.75 c -14.9,15.52 -28.8,27.65 -41.7,36.37 -13,8.73 -26.7,15.35 -41.3,19.88 -14.5,4.52 -30.3,7.43 -47.5,8.73 -17.1,1.3 -37.3,1.95 -60.6,1.95 -20.1,0 -36.5,-1.45 -49.4,-4.36 -13,-2.91 -23.2,-7.14 -30.6,-12.61 -7.4,-5.51 -12.6,-12.13 -15.5,-19.88 -2.9,-7.77 -4.4,-16.19 -4.4,-25.22 0,-16.84 2.1,-33.47 6.3,-49.96 4.2,-16.48 6.6,-33.14 7.3,-49.94" />
        <path
           inkscape:connector-curvature="0"
           id="path137"
           style="fill:none;stroke:#211c1d;stroke-width:80;stroke-linecap:butt;stroke-linejoin:miter;stroke-miterlimit:10;stroke-dasharray:none;stroke-opacity:1"
           d="m 14517.4,6271.78 v -945.63 c 0,-21.33 3.9,-41.22 11.6,-59.64 7.8,-18.43 18.4,-34.44 32,-48.01 13.6,-13.59 29.6,-24.26 48.1,-32.01 18.4,-7.77 38.6,-11.64 60.6,-11.64 21.3,0 41,3.87 59.1,11.64 18.1,7.75 33.8,18.42 47.1,32.01 13.2,13.57 23.5,29.58 31,48.01 7.4,18.42 11.1,38.61 11.1,60.62 0,41.37 0,84.69 0,129.96 0,45.24 0.2,90.83 0.5,136.75 0.3,45.89 0.5,91.31 0.5,136.26 0,44.93 0,88.4 0,130.46 l 529.6,-627.52 c 15.5,-18.12 33.6,-32.33 54.3,-42.67 20.7,-10.33 42.3,-15.52 65,-15.52 23.3,0 44.2,4.54 63,13.57 18.7,9.05 34.6,21.34 47.5,36.86 12.9,15.51 22.8,33.29 29.6,53.34 6.8,20.04 10.2,41.37 10.2,64.02 v 938.84 c 0,31.67 -4.9,57.54 -14.5,77.59 -9.8,20.03 -23,35.55 -39.8,46.55 -16.9,10.99 -36.5,18.43 -59.2,22.31 -22.6,3.87 -47.2,5.82 -73.7,5.82 -28.5,0 -51.2,-1.15 -68.4,-3.4 -17.1,-2.28 -30.2,-5.82 -39.2,-10.66 -9.1,-4.86 -15.1,-11.33 -18,-19.41 -2.9,-8.09 -4.4,-17.94 -4.4,-29.58 0,-16.16 2.3,-32.97 6.8,-50.43 4.6,-17.46 6.9,-35.57 6.9,-54.31 l 1.9,-518.89 -521.8,619.75 c -14.9,15.52 -28.8,27.65 -41.7,36.37 -13,8.73 -26.7,15.35 -41.3,19.88 -14.5,4.52 -30.3,7.43 -47.5,8.73 -17.1,1.3 -37.3,1.95 -60.6,1.95 -20.1,0 -36.5,-1.45 -49.4,-4.36 -13,-2.91 -23.2,-7.14 -30.6,-12.61 -7.4,-5.51 -12.6,-12.13 -15.5,-19.88 -2.9,-7.77 -4.4,-16.19 -4.4,-25.22 0,-16.84 2.1,-33.47 6.3,-49.96 4.2,-16.48 6.6,-33.14 7.3,-49.94 z" />
        <path
           inkscape:connector-curvature="0"
           id="path139"
           style="fill:#49a4e0;fill-opacity:1;fill-rule:nonzero;stroke:none"
           d="m 8706,4958.37 c -11.01,7.11 -23.14,12.44 -36.39,16 -13.24,3.54 -28.59,5.66 -46.07,6.31 -17.45,0.64 -39.11,0.96 -64.98,0.96 -20.7,0 -37.66,-1.61 -50.9,-4.84 -13.28,-3.25 -23.61,-7.61 -31.04,-13.09 -7.46,-5.51 -12.47,-12.13 -15.04,-19.88 -2.6,-7.77 -3.87,-16.49 -3.87,-26.19 0,-17.45 2.42,-34.12 7.27,-49.95 4.83,-15.85 7.28,-32.18 7.28,-48.98 0.62,-75.02 0.96,-152.44 0.96,-232.29 0,-79.86 0,-160.36 0,-241.5 0,-81.15 -0.16,-161.47 -0.5,-241.01 -0.31,-79.53 -0.46,-156.14 -0.46,-229.85 0,-21.35 3.86,-41.23 11.63,-59.66 7.77,-18.43 18.41,-34.42 32,-48.01 13.58,-13.57 29.73,-24.41 48.49,-32.49 18.75,-8.07 38.8,-12.11 60.15,-12.11 21.32,0 41.22,4.04 59.63,12.11 18.44,8.08 34.44,18.92 48.02,32.49 13.58,13.59 24.26,29.58 32,48.01 7.76,18.43 11.63,38.31 11.63,59.66 0,45.89 -0.15,92.29 -0.46,139.17 -0.34,46.88 -0.5,96.17 -0.5,147.91 0,51.72 -0.15,106.83 -0.49,165.36 -0.31,58.51 -0.47,122.69 -0.47,192.53 l 213.36,-266.72 c 12.28,-13.58 23.11,-25.56 32.49,-35.89 9.37,-10.35 18.44,-19.08 27.16,-26.18 8.73,-7.13 17.46,-12.47 26.18,-16.02 8.73,-3.55 18.6,-5.33 29.58,-5.33 20.71,0 40.11,7.92 58.21,23.76 18.1,15.84 37.16,35.73 57.21,59.66 l 207.57,265.74 v -643.99 c 0,-27.17 4.98,-50.44 15.01,-69.84 10.02,-19.4 22.46,-35.07 37.35,-47.03 14.88,-11.98 31.03,-20.86 48.48,-26.68 17.49,-5.81 33.64,-8.72 48.49,-8.72 22,0 42.21,4.04 60.62,12.11 18.44,8.08 34.44,18.92 48.02,32.49 13.59,13.59 24.08,29.58 31.54,48.01 7.42,18.43 11.14,38.31 11.14,59.66 v 847.66 c 0,16.15 0.15,33.77 0.49,52.87 0.31,19.06 -0.49,38.13 -2.44,57.21 -1.92,19.06 -5.67,37.66 -11.14,55.78 -5.51,18.08 -14.08,34.1 -25.72,48 -11.63,13.9 -26.98,25.05 -46.04,33.45 -19.09,8.41 -43.17,12.61 -72.28,12.61 -21.32,0 -38.96,-1.3 -52.86,-3.86 -13.89,-2.6 -25.68,-6.32 -35.4,-11.16 -9.68,-4.86 -17.45,-10.52 -23.26,-16.97 -5.82,-6.48 -11.02,-13.26 -15.54,-20.38 -3.22,-5.18 -9.68,-15.02 -19.37,-29.58 -9.71,-14.54 -26.86,-37.33 -51.43,-68.37 -24.57,-31.04 -58.51,-72.42 -101.83,-124.14 -43.32,-51.74 -100.23,-117.36 -170.68,-196.9 l -357.89,418.03 c -12.29,12.92 -23.92,22.95 -34.91,30.06" />
        <path
           inkscape:connector-curvature="0"
           id="path141"
           style="fill:none;stroke:#211c1d;stroke-width:80;stroke-linecap:butt;stroke-linejoin:miter;stroke-miterlimit:10;stroke-dasharray:none;stroke-opacity:1"
           d="m 8706,4958.37 c -11.01,7.11 -23.14,12.44 -36.39,16 -13.24,3.54 -28.59,5.66 -46.07,6.31 -17.45,0.64 -39.11,0.96 -64.98,0.96 -20.7,0 -37.66,-1.61 -50.9,-4.84 -13.28,-3.25 -23.61,-7.61 -31.04,-13.09 -7.46,-5.51 -12.47,-12.13 -15.04,-19.88 -2.6,-7.77 -3.87,-16.49 -3.87,-26.19 0,-17.45 2.42,-34.12 7.27,-49.95 4.83,-15.85 7.28,-32.18 7.28,-48.98 0.62,-75.02 0.96,-152.44 0.96,-232.29 0,-79.86 0,-160.36 0,-241.5 0,-81.15 -0.16,-161.47 -0.5,-241.01 -0.31,-79.53 -0.46,-156.14 -0.46,-229.85 0,-21.35 3.86,-41.23 11.63,-59.66 7.77,-18.43 18.41,-34.42 32,-48.01 13.58,-13.57 29.73,-24.41 48.49,-32.49 18.75,-8.07 38.8,-12.11 60.15,-12.11 21.32,0 41.22,4.04 59.63,12.11 18.44,8.08 34.44,18.92 48.02,32.49 13.58,13.59 24.26,29.58 32,48.01 7.76,18.43 11.63,38.31 11.63,59.66 0,45.89 -0.15,92.29 -0.46,139.17 -0.34,46.88 -0.5,96.17 -0.5,147.91 0,51.72 -0.15,106.83 -0.49,165.36 -0.31,58.51 -0.47,122.69 -0.47,192.53 l 213.36,-266.72 c 12.28,-13.58 23.11,-25.56 32.49,-35.89 9.37,-10.35 18.44,-19.08 27.16,-26.18 8.73,-7.13 17.46,-12.47 26.18,-16.02 8.73,-3.55 18.6,-5.33 29.58,-5.33 20.71,0 40.11,7.92 58.21,23.76 18.1,15.84 37.16,35.73 57.21,59.66 l 207.57,265.74 v -643.99 c 0,-27.17 4.98,-50.44 15.01,-69.84 10.02,-19.4 22.46,-35.07 37.35,-47.03 14.88,-11.98 31.03,-20.86 48.48,-26.68 17.49,-5.81 33.64,-8.72 48.49,-8.72 22,0 42.21,4.04 60.62,12.11 18.44,8.08 34.44,18.92 48.02,32.49 13.59,13.59 24.08,29.58 31.54,48.01 7.42,18.43 11.14,38.31 11.14,59.66 v 847.66 c 0,16.15 0.15,33.77 0.49,52.87 0.31,19.06 -0.49,38.13 -2.44,57.21 -1.92,19.06 -5.67,37.66 -11.14,55.78 -5.51,18.08 -14.08,34.1 -25.72,48 -11.63,13.9 -26.98,25.05 -46.04,33.45 -19.09,8.41 -43.17,12.61 -72.28,12.61 -21.32,0 -38.96,-1.3 -52.86,-3.86 -13.89,-2.6 -25.68,-6.32 -35.4,-11.16 -9.68,-4.86 -17.45,-10.52 -23.26,-16.97 -5.82,-6.48 -11.02,-13.26 -15.54,-20.38 -3.22,-5.18 -9.68,-15.02 -19.37,-29.58 -9.71,-14.54 -26.86,-37.33 -51.43,-68.37 -24.57,-31.04 -58.51,-72.42 -101.83,-124.14 -43.32,-51.74 -100.23,-117.36 -170.68,-196.9 l -357.89,418.03 c -12.29,12.92 -23.92,22.95 -34.91,30.06 z" />
        <path
           inkscape:connector-curvature="0"
           id="path143"
           style="fill:#49a4e0;fill-opacity:1;fill-rule:nonzero;stroke:none"
           d="m 10515.8,4516.12 133.8,-345.28 h -268.7 z m -153.3,350.12 c -1.9,-11.65 -4.8,-22.96 -8.7,-33.94 l -350.1,-866.11 c -4.58,-11 -8.6,-21.5 -12.16,-31.51 -3.56,-10.04 -6.96,-20.55 -10.18,-31.53 -4.55,-23.27 -4.05,-45.92 1.45,-67.89 5.48,-21.99 14.86,-41.39 28.09,-58.19 13.3,-16.82 29.9,-30.4 50,-40.74 20,-10.33 42,-15.52 65.9,-15.52 33,-1.28 62.1,6.97 87.3,24.74 25.2,17.76 44.9,43.15 59.2,76.12 l 47.5,114.46 h 388 l 46.5,-114.46 c 10.3,-26.52 25.5,-47.85 45.6,-64 20,-16.17 41.9,-26.83 65.5,-32.01 23.5,-5.17 47.3,-4.85 71.3,0.97 23.9,5.82 45.2,18.1 64,36.85 16.8,14.22 29.4,30.71 37.8,49.47 8.4,18.75 12.6,38.46 12.6,59.16 -0.7,9.05 -1.8,18.43 -3.4,28.13 -1.6,9.7 -4,19.06 -7.3,28.12 l -374.3,923.32 c -7.8,16.82 -16.5,32.99 -26.2,48.51 -9.7,15.51 -20.7,29.41 -33,41.69 -12.3,12.29 -26.2,21.97 -41.7,29.1 -15.5,7.11 -33,10.66 -52.4,10.66 -27.1,0 -49.4,-2.27 -66.9,-6.77 -17.4,-4.54 -31.5,-10.52 -42.2,-17.95 -10.6,-7.44 -18.6,-16 -23.8,-25.7 -5.1,-9.7 -9,-20.05 -11.6,-31.03 -2.6,-11.01 -4.8,-22.31 -6.8,-33.95" />
        <path
           inkscape:connector-curvature="0"
           id="path145"
           style="fill:none;stroke:#211c1d;stroke-width:80;stroke-linecap:butt;stroke-linejoin:miter;stroke-miterlimit:10;stroke-dasharray:none;stroke-opacity:1"
           d="m 10515.8,4516.12 133.8,-345.28 h -268.7 z m -153.3,350.12 c -1.9,-11.65 -4.8,-22.96 -8.7,-33.94 l -350.1,-866.11 c -4.58,-11 -8.6,-21.5 -12.16,-31.51 -3.56,-10.04 -6.96,-20.55 -10.18,-31.53 -4.55,-23.27 -4.05,-45.92 1.45,-67.89 5.48,-21.99 14.86,-41.39 28.09,-58.19 13.3,-16.82 29.9,-30.4 50,-40.74 20,-10.33 42,-15.52 65.9,-15.52 33,-1.28 62.1,6.97 87.3,24.74 25.2,17.76 44.9,43.15 59.2,76.12 l 47.5,114.46 h 388 l 46.5,-114.46 c 10.3,-26.52 25.5,-47.85 45.6,-64 20,-16.17 41.9,-26.83 65.5,-32.01 23.5,-5.17 47.3,-4.85 71.3,0.97 23.9,5.82 45.2,18.1 64,36.85 16.8,14.22 29.4,30.71 37.8,49.47 8.4,18.75 12.6,38.46 12.6,59.16 -0.7,9.05 -1.8,18.43 -3.4,28.13 -1.6,9.7 -4,19.06 -7.3,28.12 l -374.3,923.32 c -7.8,16.82 -16.5,32.99 -26.2,48.51 -9.7,15.51 -20.7,29.41 -33,41.69 -12.3,12.29 -26.2,21.97 -41.7,29.1 -15.5,7.11 -33,10.66 -52.4,10.66 -27.1,0 -49.4,-2.27 -66.9,-6.77 -17.4,-4.54 -31.5,-10.52 -42.2,-17.95 -10.6,-7.44 -18.6,-16 -23.8,-25.7 -5.1,-9.7 -9,-20.05 -11.6,-31.03 -2.6,-11.01 -4.8,-22.31 -6.8,-33.95 z" />
        <path
           inkscape:connector-curvature="0"
           id="path147"
           style="fill:#49a4e0;fill-opacity:1;fill-rule:nonzero;stroke:none"
           d="m 11648.6,4719.79 h 166.8 c 27.8,0 54,-5.67 78.5,-16.95 24.6,-11.29 46.1,-26.44 64.6,-45.47 18.4,-19.03 32.8,-41.1 43.1,-66.26 10.3,-25.16 15.5,-51.6 15.5,-79.34 0,-27.74 -5.2,-53.22 -15.5,-76.43 -10.3,-23.22 -24.7,-43.06 -43.1,-59.5 -18.5,-16.45 -40,-29.18 -64.6,-38.22 -24.5,-9.03 -50.7,-13.55 -78.5,-13.55 h -166.8 z m -260.9,267.19 c -13,-2.91 -23.1,-7.12 -30.6,-12.61 -7.4,-5.49 -12.6,-12.11 -15.5,-19.88 -2.9,-7.75 -4.4,-16.49 -4.4,-26.18 0,-14.88 2.1,-30.89 6.3,-48.01 4.2,-17.14 6.7,-34.11 7.3,-50.93 v -955.31 c 0,-21.35 3.9,-41.23 11.7,-59.66 7.7,-18.43 18.4,-34.59 31.9,-48.49 13.6,-13.91 29.8,-24.74 48.5,-32.49 18.8,-7.76 38.8,-11.63 60.2,-11.63 21.3,0 41.2,3.87 59.6,11.63 18.5,7.75 34.5,18.58 48,32.49 13.6,13.9 24.3,30.06 32,48.49 7.8,18.43 11.7,38.31 11.7,59.66 v 188.15 h 161 c 15.5,0 30.9,0.76 46.1,2.01 L 12058.8,3779 c 12.9,-16.17 27.8,-28.95 44.6,-38.31 16.9,-9.36 34.5,-15.17 52.9,-17.45 18.4,-2.26 37,-0.8 55.8,4.36 18.7,5.19 36.5,14.22 53.3,27.16 16.8,12.93 29.9,28.13 39.3,45.58 9.4,17.46 15.2,35.55 17.4,54.32 2.3,18.73 0.7,37.49 -4.8,56.25 -5.5,18.74 -15,35.88 -28.6,51.4 l -159.5,201.31 c 12.2,8.98 24,18.49 35.3,28.55 46,40.74 82.5,89.06 109.6,145 27.2,55.92 40.8,116.87 40.8,182.82 0,66.59 -13.6,128.5 -40.8,185.73 -27.1,57.22 -63.6,107 -109.6,149.37 -45.9,42.33 -98.9,75.64 -159,99.88 -60.2,24.26 -123.5,36.37 -190.1,36.37 h -378.3 c -20,0 -36.5,-1.45 -49.4,-4.36" />
        <path
           inkscape:connector-curvature="0"
           id="path149"
           style="fill:none;stroke:#211c1d;stroke-width:80;stroke-linecap:butt;stroke-linejoin:miter;stroke-miterlimit:10;stroke-dasharray:none;stroke-opacity:1"
           d="m 11648.6,4719.79 h 166.8 c 27.8,0 54,-5.67 78.5,-16.95 24.6,-11.29 46.1,-26.44 64.6,-45.47 18.4,-19.03 32.8,-41.1 43.1,-66.26 10.3,-25.16 15.5,-51.6 15.5,-79.34 0,-27.74 -5.2,-53.22 -15.5,-76.43 -10.3,-23.22 -24.7,-43.06 -43.1,-59.5 -18.5,-16.45 -40,-29.18 -64.6,-38.22 -24.5,-9.03 -50.7,-13.55 -78.5,-13.55 h -166.8 z m -260.9,267.19 c -13,-2.91 -23.1,-7.12 -30.6,-12.61 -7.4,-5.49 -12.6,-12.11 -15.5,-19.88 -2.9,-7.75 -4.4,-16.49 -4.4,-26.18 0,-14.88 2.1,-30.89 6.3,-48.01 4.2,-17.14 6.7,-34.11 7.3,-50.93 v -955.31 c 0,-21.35 3.9,-41.23 11.7,-59.66 7.7,-18.43 18.4,-34.59 31.9,-48.49 13.6,-13.91 29.8,-24.74 48.5,-32.49 18.8,-7.76 38.8,-11.63 60.2,-11.63 21.3,0 41.2,3.87 59.6,11.63 18.5,7.75 34.5,18.58 48,32.49 13.6,13.9 24.3,30.06 32,48.49 7.8,18.43 11.7,38.31 11.7,59.66 v 188.15 h 161 c 15.5,0 30.9,0.76 46.1,2.01 L 12058.8,3779 c 12.9,-16.17 27.8,-28.95 44.6,-38.31 16.9,-9.36 34.5,-15.17 52.9,-17.45 18.4,-2.26 37,-0.8 55.8,4.36 18.7,5.19 36.5,14.22 53.3,27.16 16.8,12.93 29.9,28.13 39.3,45.58 9.4,17.46 15.2,35.55 17.4,54.32 2.3,18.73 0.7,37.49 -4.8,56.25 -5.5,18.74 -15,35.88 -28.6,51.4 l -159.5,201.31 c 12.2,8.98 24,18.49 35.3,28.55 46,40.74 82.5,89.06 109.6,145 27.2,55.92 40.8,116.87 40.8,182.82 0,66.59 -13.6,128.5 -40.8,185.73 -27.1,57.22 -63.6,107 -109.6,149.37 -45.9,42.33 -98.9,75.64 -159,99.88 -60.2,24.26 -123.5,36.37 -190.1,36.37 h -378.3 c -20,0 -36.5,-1.45 -49.4,-4.36 z" />
        <path
           inkscape:connector-curvature="0"
           id="path151"
           style="fill:#49a4e0;fill-opacity:1;fill-rule:nonzero;stroke:none"
           d="m 12620.9,3817.31 c 7.4,-18.43 17.9,-34.77 31.5,-48.97 13.5,-14.23 29.5,-25.56 48,-33.94 18.4,-8.4 38.9,-12.61 61.6,-12.61 21.9,0 42.2,4.04 60.6,12.11 18.4,8.08 34.4,19.23 48,33.47 13.6,14.22 24.1,30.69 31.5,49.46 7.4,18.75 11.2,38.46 11.2,59.16 v 951.45 c -2,31.67 -8.9,57.37 -20.9,77.11 -12,19.71 -27.6,35.23 -47,46.55 -19.4,11.3 -41.9,19.06 -67.4,23.27 -25.6,4.21 -52.9,6.31 -82,6.31 -20,0 -36.5,-1.45 -49.5,-4.36 -12.9,-2.91 -23.1,-7.13 -30.5,-12.61 -7.4,-5.51 -12.6,-12.13 -15.5,-19.88 -2.9,-7.77 -4.4,-16.49 -4.4,-26.19 0,-15.52 2.1,-31.69 6.3,-48.49 4.2,-16.83 6.6,-33.64 7.3,-50.44 v -942.72 c 0,-20.7 3.7,-40.25 11.2,-58.68" />
        <path
           inkscape:connector-curvature="0"
           id="path153"
           style="fill:none;stroke:#211c1d;stroke-width:80;stroke-linecap:butt;stroke-linejoin:miter;stroke-miterlimit:10;stroke-dasharray:none;stroke-opacity:1"
           d="m 12620.9,3817.31 c 7.4,-18.43 17.9,-34.77 31.5,-48.97 13.5,-14.23 29.5,-25.56 48,-33.94 18.4,-8.4 38.9,-12.61 61.6,-12.61 21.9,0 42.2,4.04 60.6,12.11 18.4,8.08 34.4,19.23 48,33.47 13.6,14.22 24.1,30.69 31.5,49.46 7.4,18.75 11.2,38.46 11.2,59.16 v 951.45 c -2,31.67 -8.9,57.37 -20.9,77.11 -12,19.71 -27.6,35.23 -47,46.55 -19.4,11.3 -41.9,19.06 -67.4,23.27 -25.6,4.21 -52.9,6.31 -82,6.31 -20,0 -36.5,-1.45 -49.5,-4.36 -12.9,-2.91 -23.1,-7.13 -30.5,-12.61 -7.4,-5.51 -12.6,-12.13 -15.5,-19.88 -2.9,-7.77 -4.4,-16.49 -4.4,-26.19 0,-15.52 2.1,-31.69 6.3,-48.49 4.2,-16.83 6.6,-33.64 7.3,-50.44 v -942.72 c 0,-20.7 3.7,-40.25 11.2,-58.68 z" />
        <path
           inkscape:connector-curvature="0"
           id="path155"
           style="fill:#49a4e0;fill-opacity:1;fill-rule:nonzero;stroke:none"
           d="m 14128,4977.28 c -17.1,-2.27 -30.2,-5.82 -39.3,-10.66 -9.1,-4.86 -15,-11.32 -17.9,-19.4 -2.9,-8.09 -4.4,-17.95 -4.4,-29.58 0,-16.17 2.3,-32.97 6.8,-50.44 4.5,-17.45 6.8,-35.57 6.8,-54.31 l 1.9,-518.88 -521.8,619.74 c -14.8,15.52 -28.7,27.65 -41.7,36.38 -12.9,8.72 -26.6,15.35 -41.2,19.88 -14.5,4.52 -30.4,7.43 -47.5,8.72 -17.2,1.3 -37.3,1.95 -60.6,1.95 -20.1,0 -36.6,-1.45 -49.5,-4.36 -12.9,-2.91 -23.1,-7.13 -30.5,-12.61 -7.5,-5.51 -12.7,-12.13 -15.6,-19.88 -2.9,-7.77 -4.3,-16.18 -4.3,-25.22 0,-16.83 2.1,-33.46 6.3,-49.96 4.2,-16.47 6.6,-33.14 7.3,-49.94 v -945.63 c 0,-21.33 3.8,-41.21 11.6,-59.64 7.8,-18.43 18.4,-34.44 32,-48.01 13.6,-13.58 29.6,-24.26 48,-32.01 18.4,-7.76 38.6,-11.63 60.6,-11.63 21.4,0 41.1,3.87 59.2,11.63 18.1,7.75 33.8,18.43 47,32.01 13.3,13.57 23.6,29.58 31.1,48.01 7.4,18.43 11.1,38.62 11.1,60.62 0,41.37 0,84.69 0,129.96 0,45.24 0.2,90.84 0.5,136.76 0.3,45.88 0.5,91.31 0.5,136.25 0,44.93 0,88.41 0,130.46 l 529.5,-627.51 c 15.6,-18.12 33.7,-32.34 54.4,-42.67 20.6,-10.34 42.3,-15.52 64.9,-15.52 23.3,0 44.3,4.53 63.1,13.57 18.7,9.05 34.5,21.33 47.5,36.85 12.9,15.52 22.8,33.29 29.6,53.35 6.8,20.03 10.2,41.37 10.2,64.02 v 938.83 c 0,31.67 -4.9,57.54 -14.6,77.59 -9.7,20.04 -22.9,35.56 -39.7,46.56 -16.9,10.98 -36.6,18.42 -59.2,22.31 -22.7,3.86 -47.2,5.81 -73.7,5.81 -28.5,0 -51.3,-1.14 -68.4,-3.4" />
        <path
           inkscape:connector-curvature="0"
           id="path157"
           style="fill:none;stroke:#211c1d;stroke-width:80;stroke-linecap:butt;stroke-linejoin:miter;stroke-miterlimit:10;stroke-dasharray:none;stroke-opacity:1"
           d="m 14128,4977.28 c -17.1,-2.27 -30.2,-5.82 -39.3,-10.66 -9.1,-4.86 -15,-11.32 -17.9,-19.4 -2.9,-8.09 -4.4,-17.95 -4.4,-29.58 0,-16.17 2.3,-32.97 6.8,-50.44 4.5,-17.45 6.8,-35.57 6.8,-54.31 l 1.9,-518.88 -521.8,619.74 c -14.8,15.52 -28.7,27.65 -41.7,36.38 -12.9,8.72 -26.6,15.35 -41.2,19.88 -14.5,4.52 -30.4,7.43 -47.5,8.72 -17.2,1.3 -37.3,1.95 -60.6,1.95 -20.1,0 -36.6,-1.45 -49.5,-4.36 -12.9,-2.91 -23.1,-7.13 -30.5,-12.61 -7.5,-5.51 -12.7,-12.13 -15.6,-19.88 -2.9,-7.77 -4.3,-16.18 -4.3,-25.22 0,-16.83 2.1,-33.46 6.3,-49.96 4.2,-16.47 6.6,-33.14 7.3,-49.94 v -945.63 c 0,-21.33 3.8,-41.21 11.6,-59.64 7.8,-18.43 18.4,-34.44 32,-48.01 13.6,-13.58 29.6,-24.26 48,-32.01 18.4,-7.76 38.6,-11.63 60.6,-11.63 21.4,0 41.1,3.87 59.2,11.63 18.1,7.75 33.8,18.43 47,32.01 13.3,13.57 23.6,29.58 31.1,48.01 7.4,18.43 11.1,38.62 11.1,60.62 0,41.37 0,84.69 0,129.96 0,45.24 0.2,90.84 0.5,136.76 0.3,45.88 0.5,91.31 0.5,136.25 0,44.93 0,88.41 0,130.46 l 529.5,-627.51 c 15.6,-18.12 33.7,-32.34 54.4,-42.67 20.6,-10.34 42.3,-15.52 64.9,-15.52 23.3,0 44.3,4.53 63.1,13.57 18.7,9.05 34.5,21.33 47.5,36.85 12.9,15.52 22.8,33.29 29.6,53.35 6.8,20.03 10.2,41.37 10.2,64.02 v 938.83 c 0,31.67 -4.9,57.54 -14.6,77.59 -9.7,20.04 -22.9,35.56 -39.7,46.56 -16.9,10.98 -36.6,18.42 -59.2,22.31 -22.7,3.86 -47.2,5.81 -73.7,5.81 -28.5,0 -51.3,-1.14 -68.4,-3.4 z" />
        <path
           inkscape:connector-curvature="0"
           id="path159"
           style="fill:#49a4e0;fill-opacity:1;fill-rule:nonzero;stroke:none"
           d="m 15531.9,4981.64 h -696.4 c -19.4,0 -35.2,-1.61 -47.5,-4.84 -12.3,-3.25 -22.2,-7.61 -29.6,-13.09 -7.4,-5.51 -12.4,-12.13 -15,-19.88 -2.6,-7.77 -3.9,-16.49 -3.9,-26.19 0,-16.17 2.1,-32.97 6.3,-50.44 4.2,-17.45 7,-34.6 8.3,-51.4 v -933.01 c 0,-23.29 3.9,-44.79 11.6,-64.51 7.8,-19.72 18.6,-36.69 32.5,-50.91 13.9,-14.24 30.7,-25.39 50.4,-33.47 19.7,-8.07 41.2,-12.11 64.5,-12.11 h 617.8 c 21.3,0 41.6,3.87 60.6,11.63 19.1,7.75 35.7,18.43 50,32.01 14.2,13.57 25.3,29.58 33.5,48.01 8,18.43 12.1,38.62 12.1,60.62 0,22.62 -4.1,43.3 -12.1,62.07 -8.2,18.74 -19.3,34.75 -33.5,48.01 -14.3,13.24 -30.9,23.59 -50,31.04 -19,7.42 -39.6,11.14 -61.5,11.14 h -473.4 v 185.25 h 354 c 30.4,0 57.1,7.75 80.1,23.27 22.9,15.52 39.9,37.18 50.9,64.98 9.7,23.29 12.7,46.39 9.2,69.35 -3.6,22.94 -12,43.32 -25.2,61.11 -13.3,17.78 -29.9,32.32 -50,43.65 -20,11.29 -41.7,16.97 -65,16.97 h -354 v 200.76 h 476.3 c 33.6,0 61.4,7.1 83.4,21.33 22,14.22 38.4,32.15 49.4,53.83 11,21.66 16.4,44.93 16.1,69.84 -0.4,24.88 -6.2,48.15 -17.6,69.82 -11.2,21.66 -27.9,39.61 -49.9,53.83 -22,14.22 -49.4,21.33 -82.4,21.33" />
        <path
           inkscape:connector-curvature="0"
           id="path161"
           style="fill:none;stroke:#211c1d;stroke-width:80;stroke-linecap:butt;stroke-linejoin:miter;stroke-miterlimit:10;stroke-dasharray:none;stroke-opacity:1"
           d="m 15531.9,4981.64 h -696.4 c -19.4,0 -35.2,-1.61 -47.5,-4.84 -12.3,-3.25 -22.2,-7.61 -29.6,-13.09 -7.4,-5.51 -12.4,-12.13 -15,-19.88 -2.6,-7.77 -3.9,-16.49 -3.9,-26.19 0,-16.17 2.1,-32.97 6.3,-50.44 4.2,-17.45 7,-34.6 8.3,-51.4 v -933.01 c 0,-23.29 3.9,-44.79 11.6,-64.51 7.8,-19.72 18.6,-36.69 32.5,-50.91 13.9,-14.24 30.7,-25.39 50.4,-33.47 19.7,-8.07 41.2,-12.11 64.5,-12.11 h 617.8 c 21.3,0 41.6,3.87 60.6,11.63 19.1,7.75 35.7,18.43 50,32.01 14.2,13.57 25.3,29.58 33.5,48.01 8,18.43 12.1,38.62 12.1,60.62 0,22.62 -4.1,43.3 -12.1,62.07 -8.2,18.74 -19.3,34.75 -33.5,48.01 -14.3,13.24 -30.9,23.59 -50,31.04 -19,7.42 -39.6,11.14 -61.5,11.14 h -473.4 v 185.25 h 354 c 30.4,0 57.1,7.75 80.1,23.27 22.9,15.52 39.9,37.18 50.9,64.98 9.7,23.29 12.7,46.39 9.2,69.35 -3.6,22.94 -12,43.32 -25.2,61.11 -13.3,17.78 -29.9,32.32 -50,43.65 -20,11.29 -41.7,16.97 -65,16.97 h -354 v 200.76 h 476.3 c 33.6,0 61.4,7.1 83.4,21.33 22,14.22 38.4,32.15 49.4,53.83 11,21.66 16.4,44.93 16.1,69.84 -0.4,24.88 -6.2,48.15 -17.6,69.82 -11.2,21.66 -27.9,39.61 -49.9,53.83 -22,14.22 -49.4,21.33 -82.4,21.33 z" />
      </g>
    </g>
    <text
       xml:space="preserve"
       style="font-style:normal;font-variant:normal;font-weight:normal;font-stretch:normal;font-size:3.52777767px;line-height:1.25;font-family:Imprima;-inkscape-font-specification:'Imprima, Normal';font-variant-ligatures:normal;font-variant-caps:normal;font-variant-numeric:normal;font-feature-settings:normal;text-align:start;letter-spacing:0px;word-spacing:0px;writing-mode:lr-tb;text-anchor:start;fill:#49a4e0;fill-opacity:1;stroke:none;stroke-width:0.26458332"
       x="2.9969635"
       y="297.4725"
       id="text204"><tspan
         sodipodi:role="line"
         id="tspan202"
         x="2.9969635"
         y="297.4725"
         style="font-style:normal;font-variant:normal;font-weight:normal;font-stretch:normal;font-size:3.52777767px;font-family:Imprima;-inkscape-font-specification:'Imprima, Normal';font-variant-ligatures:normal;font-variant-caps:normal;font-variant-numeric:normal;font-feature-settings:normal;text-align:start;writing-mode:lr-tb;text-anchor:start;fill:#49a4e0;fill-opacity:1;stroke-width:0.26458332">www.suburbanmarine.io</tspan></text>
  </g>
</svg>
